<svg xmlns="http://www.w3.org/2000/svg" width="1200" height="630" viewBox="0 0 1200 630" role="img" aria-labelledby="title desc"><title id="title">vibe-qc</title><desc id="desc">Quantum chemistry. Molecules to solids. Molecular + periodic · Python + C++17</desc><defs><radialGradient id="halo"><stop stop-color="#174B3E" stop-opacity=".48"/><stop offset="1" stop-color="#08120F" stop-opacity="0"/></radialGradient><linearGradient id="teal" x2="1" y2="1"><stop stop-color="#2DB9A8" stop-opacity=".42"/><stop offset="1" stop-color="#2DB9A8" stop-opacity=".08"/></linearGradient><linearGradient id="coral" x2="1" y2="1"><stop stop-color="#FF7057" stop-opacity=".40"/><stop offset="1" stop-color="#FF7057" stop-opacity=".06"/></linearGradient><linearGradient id="violet" x2="1" y2="1"><stop stop-color="#BAA4FA" stop-opacity=".45"/><stop offset="1" stop-color="#BAA4FA" stop-opacity=".08"/></linearGradient></defs><rect width="1200" height="630" fill="#08120F"/><circle cx="980" cy="290" r="360" fill="url(#halo)"/><g stroke="#294A3E" stroke-opacity=".22"><path d="M780 130V455"/><path d="M820 130V455"/><path d="M860 130V455"/><path d="M900 130V455"/><path d="M940 130V455"/><path d="M980 130V455"/><path d="M1020 130V455"/><path d="M1060 130V455"/><path d="M1100 130V455"/><path d="M1140 130V455"/><path d="M780 135H1160"/><path d="M780 175H1160"/><path d="M780 215H1160"/><path d="M780 255H1160"/><path d="M780 295H1160"/><path d="M780 335H1160"/><path d="M780 375H1160"/><path d="M780 415H1160"/><path d="M780 455H1160"/></g><g transform="translate(64,48) scale(.9)"><rect x="2" y="2" width="44" height="44" rx="11" fill="none" stroke="#2DB9A8" stroke-width="2.5"/><g stroke="#2DB9A8" stroke-width="2.7" stroke-linecap="round" stroke-linejoin="round" fill="none"><path d="M11 24C15 10 20 10 24 24S33 38 37 24"/><circle cx="11" cy="24" r="2.8"/><circle cx="37" cy="24" r="2.8"/></g><g aria-label="vibe-qc" fill="#ECF3F1" transform="translate(63,37) scale(0.0215,-0.0215)"><path transform="translate(0.000,0)" d="M432 0 40 1080H266L545.5 279.5L824.5 1080H1051L659 0Z"/><path transform="translate(1044.488,0)" d="M160 1250.5V1462.5H385V1250.5ZM160 0V1080H385V0Z"/><path transform="translate(1542.977,0)" d="M653 -30Q496.5 -30 390.5 45.25Q284.5 120.5 230.5 249.62Q176.5 378.75 176.5 540.5Q176.5 703 230.25 831.88Q284 960.75 388.62 1035.38Q493.25 1110 646.5 1110Q799 1110 910.62 1035.62Q1022.25 961.25 1083.12 832.62Q1144 704 1144 540.5Q1144 378.5 1083.62 249.38Q1023.25 120.25 913.12 45.12Q803 -30 653 -30ZM138.5 0V1440H365V767.5H338V0ZM620 172.5Q717.25 172.5 780.38 221.5Q843.5 270.5 874.5 354Q905.5 437.5 905.5 540.5Q905.5 642.5 874.12 725.75Q842.75 809 777.88 858.25Q713 907.5 612.5 907.5Q517.25 907.5 456.5 861.25Q395.75 815 366.88 732.12Q338 649.25 338 540.5Q338 432.25 366.75 349.12Q395.5 266 457.75 219.25Q520 172.5 620 172.5Z"/><path transform="translate(2720.465,0)" d="M625 -30Q462.25 -30 339.75 40.88Q217.25 111.75 148.62 237.88Q80 364 80 529.5Q80 706.5 147.38 836.75Q214.75 967 334.62 1038.5Q454.5 1110 613 1110Q779.25 1110 896 1032.5Q1012.75 955 1070.12 813Q1127.5 671 1114.75 477H890.5V559Q889 741 823.75 826.5Q758.5 912 622 912Q469.75 912 394.12 816.75Q318.5 721.5 318.5 540Q318.5 369 394.12 275.25Q469.75 181.5 613 181.5Q706.5 181.5 774.5 223.5Q842.5 265.5 880 344.5L1101.5 276Q1039.25 130.5 910.38 50.25Q781.5 -30 625 -30ZM246.5 477V649.5H1003.5V477Z"/><path transform="translate(3872.953,0)" d="M120 541.5V720H720V541.5Z"/><path transform="translate(4666.442,0)" d="M571 -30Q421 -30 310.88 45.12Q200.75 120.25 140.38 249.38Q80 378.5 80 540.5Q80 704 140.88 832.62Q201.75 961.25 313.38 1035.62Q425 1110 577.5 1110Q730.75 1110 835.38 1035.38Q940 960.75 993.75 831.88Q1047.5 703 1047.5 540.5Q1047.5 378.75 993.5 249.62Q939.5 120.5 833.5 45.25Q727.5 -30 571 -30ZM604 172.5Q704 172.5 766.25 219.25Q828.5 266 857.25 349.12Q886 432.25 886 540.5Q886 649.25 857.12 732.12Q828.25 815 767.5 861.25Q706.75 907.5 611.5 907.5Q511 907.5 446 858.25Q381 809 349.75 725.75Q318.5 642.5 318.5 540.5Q318.5 437.5 349.5 354Q380.5 270.5 443.62 221.5Q506.75 172.5 604 172.5ZM859 -480V312.5H886V1080H1085.5V-480Z"/><path transform="translate(5845.930,0)" d="M605.5 -30Q439.25 -30 322 44.25Q204.75 118.5 142.75 247.38Q80.75 376.25 80 540Q80.75 706.25 144.75 835Q208.75 963.75 326.75 1036.88Q444.75 1110 608.5 1110Q789.25 1110 915.75 1019.75Q1042.25 929.5 1081.5 773L857.5 710.5Q828.25 799.5 760.25 849Q692.25 898.5 605.5 898.5Q507 898.5 443.5 852Q380 805.5 349.5 724.5Q319 643.5 318.5 540Q319.25 379.25 391.38 280.38Q463.5 181.5 605.5 181.5Q704.25 181.5 763.25 226.75Q822.25 272 852.5 357L1081.5 304.5Q1030.25 143 906.75 56.5Q783.25 -30 605.5 -30Z"/></g></g><g aria-label="vibe-qc.com" fill="#9DB1AB" transform="translate(976,78) scale(0.009,-0.009)"><path transform="translate(0.000,0)" d="M432 0 40 1080H220L523 227L825 1080H1006L614 0Z"/><path transform="translate(1046.000,0)" d="M160 1271V1455H338V1271ZM160 0V1080H338V0Z"/><path transform="translate(1544.000,0)" d="M636 -30Q484 -30 380 45.5Q276 121 222.5 250.25Q169 379.5 169 541Q169 704 222.5 832.75Q276 961.5 380.25 1035.75Q484.5 1110 637 1110Q787 1110 895.25 1035.25Q1003.5 960.5 1061.75 831.75Q1120 703 1120 541Q1120 379 1061.75 249.75Q1003.5 120.5 895.25 45.25Q787 -30 636 -30ZM139 0V1440H318V795H298V0ZM614 133Q720.5 133 790.75 187Q861 241 896 333.5Q931 426 931 541Q931 655 896.25 747Q861.5 839 790.25 893Q719 947 609 947Q503.5 947 434.5 895.5Q365.5 844 331.75 752.25Q298 660.5 298 541Q298 422.5 331.5 330.25Q365 238 435 185.5Q505 133 614 133Z"/><path transform="translate(2744.000,0)" d="M608 -30Q448.5 -30 330 40.25Q211.5 110.5 145.75 237.25Q80 364 80 533Q80 710 144.75 839.5Q209.5 969 326.25 1039.5Q443 1110 600 1110Q762.5 1110 877 1035Q991.5 960 1049.25 821Q1107 682 1098.5 490H919V554Q916 753 838 851.5Q760 950 606 950Q440.5 950 354.75 844Q269 738 269 540Q269 349 354.75 244Q440.5 139 600 139Q707 139 786 188Q865 237 910 329L1081 270Q1017.5 127 891.25 48.5Q765 -30 608 -30ZM209 490V633H1007V490Z"/><path transform="translate(3925.000,0)" d="M120 557V704H720V557Z"/><path transform="translate(4765.000,0)" d="M564 -30Q413 -30 304.75 45.25Q196.5 120.5 138.25 249.75Q80 379 80 541Q80 703 138.25 831.75Q196.5 960.5 304.75 1035.25Q413 1110 563 1110Q715.5 1110 819.75 1035.75Q924 961.5 977.5 832.75Q1031 704 1031 541Q1031 379.5 977.5 250.25Q924 121 820 45.5Q716 -30 564 -30ZM586 133Q695 133 765 185.5Q835 238 868.5 330.25Q902 422.5 902 541Q902 660.5 868.25 752.25Q834.5 844 765.5 895.5Q696.5 947 591 947Q481 947 409.5 893Q338 839 303.5 747Q269 655 269 541Q269 426 304 333.5Q339 241 409.25 187Q479.5 133 586 133ZM882 -480V285H902V1080H1061V-480Z"/><path transform="translate(5966.000,0)" d="M595 -30Q430.5 -30 316 43.5Q201.5 117 141.5 245.75Q81.5 374.5 80 540Q81.5 708.5 143 837Q204.5 965.5 319.5 1037.75Q434.5 1110 597 1110Q767.5 1110 891 1026Q1014.5 942 1057 796L881 743Q846.5 837 770 889Q693.5 941 595 941Q484 941 412 889.5Q340 838 305 747.5Q270 657 269 540Q270.5 359.5 352.25 249.25Q434 139 595 139Q700.5 139 770.5 187.5Q840.5 236 877 328L1057 281Q1000.5 130 881.5 50Q762.5 -30 595 -30Z"/><path transform="translate(7088.000,0)" d="M172 0V196H368V0Z"/><path transform="translate(7628.000,0)" d="M595 -30Q430.5 -30 316 43.5Q201.5 117 141.5 245.75Q81.5 374.5 80 540Q81.5 708.5 143 837Q204.5 965.5 319.5 1037.75Q434.5 1110 597 1110Q767.5 1110 891 1026Q1014.5 942 1057 796L881 743Q846.5 837 770 889Q693.5 941 595 941Q484 941 412 889.5Q340 838 305 747.5Q270 657 269 540Q270.5 359.5 352.25 249.25Q434 139 595 139Q700.5 139 770.5 187.5Q840.5 236 877 328L1057 281Q1000.5 130 881.5 50Q762.5 -30 595 -30Z"/><path transform="translate(8750.000,0)" d="M600 -30Q438.5 -30 322 43Q205.5 116 142.75 244.75Q80 373.5 80 541Q80 710.5 144 838.75Q208 967 324.75 1038.5Q441.5 1110 600 1110Q762 1110 878.75 1037.25Q995.5 964.5 1058.25 836.25Q1121 708 1121 541Q1121 371.5 1057.75 243Q994.5 114.5 877.5 42.25Q760.5 -30 600 -30ZM600 139Q767.5 139 849.75 251Q932 363 932 541Q932 723.5 849 832.25Q766 941 600 941Q487 941 413.75 890Q340.5 839 304.75 749Q269 659 269 541Q269 358.5 353 248.75Q437 139 600 139Z"/><path transform="translate(9951.000,0)" d="M1431 0 1432 691Q1432 812 1367.25 880.5Q1302.5 949 1200 949Q1139.5 949 1085.75 921.25Q1032 893.5 998 835.25Q964 777 964 686L870 724Q867.5 839 917 925.5Q966.5 1012 1052.75 1060Q1139 1108 1247 1108Q1416 1108 1513 1005.25Q1610 902.5 1610 730L1609 0ZM139 0V1080H298V791H318V0ZM786 0 787 684Q787 807.5 723 878.25Q659 949 553 949Q447.5 949 382.75 876.75Q318 804.5 318 686L224 742Q224 847 274 929.75Q324 1012.5 410 1060.25Q496 1108 605 1108Q714 1108 794.75 1061.75Q875.5 1015.5 919.75 930Q964 844.5 964 727L963 0Z"/></g><g aria-label="CALCULATE" fill="#2DB9A8" transform="translate(66,181) scale(0.007,-0.007)"><path transform="translate(0.000,0)" d="M749.33 -30Q533.5 -30 379.17 64.33Q224.83 158.67 142.42 327.67Q60 496.67 60 720Q60 943.33 142.42 1112.33Q224.83 1281.33 379.17 1375.67Q533.5 1470 749.33 1470Q998 1470 1164.08 1345.58Q1330.17 1221.17 1396.66 1009.67L1153.67 943Q1112.34 1084 1011.25 1163.34Q910.17 1242.67 749.33 1242.67Q604.33 1242.67 507.66 1177.67Q411 1112.67 362.33 995.09Q313.66 877.5 313.33 720Q313 562.5 361.66 445Q410.33 327.5 507.33 262.41Q604.33 197.33 749.33 197.33Q910.17 197.33 1011.25 277.16Q1112.34 357 1153.67 497L1396.66 430.33Q1330.17 218.83 1164.08 94.42Q998 -30 749.33 -30Z"/><path transform="translate(1805.571,0)" d="M40 0 494 1440H847.33L1301.33 0H1053L641.33 1292H694.67L288.33 0ZM293.33 312.33V537.33H1049.33V312.33Z"/><path transform="translate(3475.143,0)" d="M160 0V1440H400.66V225.66H1036.66V0Z"/><path transform="translate(4870.714,0)" d="M749.33 -30Q533.5 -30 379.17 64.33Q224.83 158.67 142.42 327.67Q60 496.67 60 720Q60 943.33 142.42 1112.33Q224.83 1281.33 379.17 1375.67Q533.5 1470 749.33 1470Q998 1470 1164.08 1345.58Q1330.17 1221.17 1396.66 1009.67L1153.67 943Q1112.34 1084 1011.25 1163.34Q910.17 1242.67 749.33 1242.67Q604.33 1242.67 507.66 1177.67Q411 1112.67 362.33 995.09Q313.66 877.5 313.33 720Q313 562.5 361.66 445Q410.33 327.5 507.33 262.41Q604.33 197.33 749.33 197.33Q910.17 197.33 1011.25 277.16Q1112.34 357 1153.67 497L1396.66 430.33Q1330.17 218.83 1164.08 94.42Q998 -30 749.33 -30Z"/><path transform="translate(6676.286,0)" d="M720 -30Q548.33 -30 417.67 39.92Q287 109.83 213.5 236.75Q140 363.67 140 535V1438.33L384 1440V541.33Q384 460 411.5 396.08Q439 332.16 486.25 287.58Q533.5 243 594.08 219.83Q654.67 196.66 720 196.66Q787 196.66 847.58 220.25Q908.17 243.83 955 288.41Q1001.83 333 1028.92 396.91Q1056 460.83 1056 541.33V1440H1300V535Q1300 363.83 1226.5 236.92Q1153 110 1022.33 40Q891.67 -30 720 -30Z"/><path transform="translate(8444.857,0)" d="M160 0V1440H400.66V225.66H1036.66V0Z"/><path transform="translate(9840.429,0)" d="M40 0 494 1440H847.33L1301.33 0H1053L641.33 1292H694.67L288.33 0ZM293.33 312.33V537.33H1049.33V312.33Z"/><path transform="translate(11510.000,0)" d="M486.33 0V1214.34H20V1440H1193.33V1214.34H727V0Z"/><path transform="translate(13051.571,0)" d="M140 0V1440H1070V1214.34H380.66V858.66H950V633H380.66V225.66H1070V0Z"/></g><g aria-label="Quantum chemistry." fill="#ECF3F1" transform="translate(62,268) scale(0.029,-0.029)"><path transform="translate(0.000,0)" d="M1267.33 -29.67 856.33 379.33 1007.33 530.33 1416.33 121.33ZM749.33 -30Q533.5 -30 379.17 64.33Q224.83 158.67 142.42 327.67Q60 496.67 60 720Q60 943.33 142.42 1112.33Q224.83 1281.33 379.17 1375.67Q533.5 1470 749.33 1470Q965.17 1470 1119.5 1375.67Q1273.83 1281.33 1356.25 1112.33Q1438.66 943.33 1438.66 720Q1438.66 496.67 1356.25 327.67Q1273.83 158.67 1119.5 64.33Q965.17 -30 749.33 -30ZM749.33 197.33Q894.33 195.66 990.75 260.75Q1087.17 325.83 1135.42 444.16Q1183.67 562.5 1183.67 720Q1183.67 877.5 1135.42 994.25Q1087.17 1111 990.75 1176Q894.33 1241 749.33 1242.67Q604.33 1244.34 508.08 1179.34Q411.83 1114.34 363.58 995.92Q315.33 877.5 315 720Q314.66 562.5 362.91 445.83Q411.16 329.16 507.75 264.08Q604.33 199 749.33 197.33Z"/><path transform="translate(1436.931,0)" d="M544.67 -30.67Q425.17 -30.67 347.08 9Q269 48.67 223 110.92Q177 173.17 155 243.25Q133 313.33 126.5 375.92Q120 438.5 120 477V1080H364V559.67Q364 509.66 371.25 447.58Q378.5 385.5 403.66 327.91Q428.83 270.33 479.33 233.33Q529.83 196.33 616.33 196.33Q662 196.33 706.92 211.25Q751.83 226.16 788.17 262.41Q824.5 298.67 846.58 362.92Q868.67 427.17 868.67 525L1011.67 463.67Q1011.67 326.17 958.17 213.92Q904.67 101.67 800.83 35.5Q697 -30.67 544.67 -30.67ZM898 0V335H868.67V1080H1111V0Z"/><path transform="translate(2625.862,0)" d="M442.33 -30Q324.67 -30 243.75 14.42Q162.83 58.83 121.42 132.92Q80 207 80 296Q80 374.33 106.08 436.42Q132.17 498.5 186.25 544.08Q240.33 589.67 325.67 619Q391.34 640.5 478.42 657.08Q565.5 673.67 668.17 688.25Q770.84 702.83 883.33 719.67L796.67 671.33Q797.5 783.17 746.75 836.25Q696 889.34 574.67 889.34Q502 889.34 434.08 855.09Q366.16 820.84 339 738.33L118.67 807.33Q158.83 944 271.58 1027Q384.33 1110 575.33 1110Q719.5 1110 828.67 1063.17Q937.83 1016.33 991.33 909Q1020.33 852.33 1026.33 792.83Q1032.33 733.33 1032.33 662.67V0H821V234.33L856 195.67Q783 79.17 685.42 24.58Q587.83 -30 442.33 -30ZM490 162.33Q572 162.33 629.83 191.41Q687.67 220.5 722.34 262.08Q757 303.67 768.67 341.33Q787.5 387.34 790.42 446.75Q793.34 506.17 793.34 543.34L867.33 521Q757.67 503.5 679.59 490.84Q601.5 478.17 545.83 466.75Q490.17 455.34 447 441Q405.5 425.67 376.41 405.92Q347.33 386.17 331.83 360Q316.33 333.83 316.33 299Q316.33 259.5 336.08 228.58Q355.83 197.66 394.41 180Q433 162.33 490 162.33Z"/><path transform="translate(3715.793,0)" d="M887 0V520.33Q887 570.5 879.75 632.5Q872.5 694.5 847.33 752.09Q822.17 809.67 771.67 846.67Q721.17 883.67 634.67 883.67Q589 883.67 544.08 868.75Q499.16 853.84 462.83 817.59Q426.5 781.33 404.41 717.5Q382.33 653.67 382.33 555L239.33 616.33Q239.33 753.83 292.83 866.08Q346.33 978.33 450.16 1044.5Q554 1110.67 706.33 1110.67Q825.83 1110.67 903.91 1071Q982 1031.33 1028 969.08Q1074 906.83 1096 836.75Q1118 766.67 1124.5 704.08Q1131 641.5 1131 603V0ZM138.33 0V1080H353V745H382.33V0Z"/><path transform="translate(4904.724,0)" d="M773 0Q666.17 -20.5 563.42 -17.67Q460.67 -14.83 379.92 20.33Q299.17 55.5 257.33 132.67Q220 203.17 217.83 276Q215.67 348.83 215.67 441.33V1380H456.33V454.66Q456.33 390.5 457.83 341.25Q459.33 292 478.33 260.66Q514.33 201.16 593.16 194.25Q672 187.33 773 201.66ZM20 891V1080H773V891Z"/><path transform="translate(5708.655,0)" d="M544.67 -30.67Q425.17 -30.67 347.08 9Q269 48.67 223 110.92Q177 173.17 155 243.25Q133 313.33 126.5 375.92Q120 438.5 120 477V1080H364V559.67Q364 509.66 371.25 447.58Q378.5 385.5 403.66 327.91Q428.83 270.33 479.33 233.33Q529.83 196.33 616.33 196.33Q662 196.33 706.92 211.25Q751.83 226.16 788.17 262.41Q824.5 298.67 846.58 362.92Q868.67 427.17 868.67 525L1011.67 463.67Q1011.67 326.17 958.17 213.92Q904.67 101.67 800.83 35.5Q697 -30.67 544.67 -30.67ZM898 0V335H868.67V1080H1111V0Z"/><path transform="translate(6897.586,0)" d="M1437 0 1437.33 655.67Q1437.33 767.34 1382.08 829.84Q1326.83 892.34 1233.33 892.34Q1175.16 892.34 1129.25 865.42Q1083.33 838.5 1056.33 787.42Q1029.33 736.34 1029.33 664.67L922 728Q921.16 840.33 972.66 925.83Q1024.16 1011.33 1111.91 1059Q1199.66 1106.67 1307.66 1106.67Q1487.33 1106.67 1582.66 999.42Q1678 892.17 1678 716.67L1677.66 0ZM138.33 0V1080H351.33V745H380.66V0ZM788.67 0 789 653.34Q789 765.84 734 829.09Q679 892.34 584.33 892.34Q492.5 892.34 436.58 829.25Q380.66 766.17 380.66 664.67L273.33 736.67Q273.33 842.33 325.33 925.92Q377.33 1009.5 465.66 1058.08Q554 1106.67 664.33 1106.67Q785.33 1106.67 866.58 1055.25Q947.83 1003.83 988.58 915.33Q1029.33 826.83 1029.33 715.67L1029 0Z"/><path transform="translate(8971.448,0)" d="M609 -30Q442.17 -30 324 44.5Q205.83 119 143.17 247.92Q80.5 376.83 80 540Q80.5 705.5 145.33 834.33Q210.17 963.17 329.17 1036.58Q448.17 1110 612.33 1110Q796.5 1110 924 1017.67Q1051.5 925.33 1089.66 765.34L849.67 699.67Q822.17 787 757 835.67Q691.83 884.34 609 884.34Q514.66 884.34 454 839.5Q393.33 794.67 364.33 716.84Q335.33 639 335 540Q335.5 385.83 404.41 290.75Q473.33 195.66 609 195.66Q705.5 195.66 760.83 239.83Q816.17 284 844.34 366.66L1089.66 312.33Q1040.16 147.33 915.16 58.67Q790.16 -30 609 -30Z"/><path transform="translate(10060.379,0)" d="M887 0V520.33Q887 570.5 879.75 632.5Q872.5 694.5 847.33 752.09Q822.17 809.67 771.67 846.67Q721.17 883.67 634.67 883.67Q589 883.67 544.08 868.75Q499.16 853.84 462.83 817.59Q426.5 781.33 404.41 717.5Q382.33 653.67 382.33 555L239.33 616.33Q239.33 753.83 292.83 866.08Q346.33 978.33 450.16 1044.5Q554 1110.67 706.33 1110.67Q825.83 1110.67 903.91 1071Q982 1031.33 1028 969.08Q1074 906.83 1096 836.75Q1118 766.67 1124.5 704.08Q1131 641.5 1131 603V0ZM138.33 0V1440H353V681.66H382.33V0Z"/><path transform="translate(11249.310,0)" d="M630.67 -30Q466.83 -30 343 41.08Q219.17 112.17 149.58 238.08Q80 364 80 528.33Q80 705.33 148.25 835.83Q216.5 966.33 337.42 1038.17Q458.33 1110 617.33 1110Q784.83 1110 902.33 1031.67Q1019.83 953.33 1077.08 810.33Q1134.33 667.33 1120.17 472.67H881V560.67Q880 737 819 818.17Q758 899.34 627.33 899.34Q479.5 899.34 407.25 807.67Q335 716 335 540Q335 375.67 407.25 285.66Q479.5 195.66 617.33 195.66Q706.33 195.66 770.67 235.33Q835 275 870 349.67L1108.33 278Q1046.5 131.67 916.75 50.83Q787 -30 630.67 -30ZM259 472.67V655H1002.33V472.67Z"/><path transform="translate(12391.241,0)" d="M1437 0 1437.33 655.67Q1437.33 767.34 1382.08 829.84Q1326.83 892.34 1233.33 892.34Q1175.16 892.34 1129.25 865.42Q1083.33 838.5 1056.33 787.42Q1029.33 736.34 1029.33 664.67L922 728Q921.16 840.33 972.66 925.83Q1024.16 1011.33 1111.91 1059Q1199.66 1106.67 1307.66 1106.67Q1487.33 1106.67 1582.66 999.42Q1678 892.17 1678 716.67L1677.66 0ZM138.33 0V1080H351.33V745H380.66V0ZM788.67 0 789 653.34Q789 765.84 734 829.09Q679 892.34 584.33 892.34Q492.5 892.34 436.58 829.25Q380.66 766.17 380.66 664.67L273.33 736.67Q273.33 842.33 325.33 925.92Q377.33 1009.5 465.66 1058.08Q554 1106.67 664.33 1106.67Q785.33 1106.67 866.58 1055.25Q947.83 1003.83 988.58 915.33Q1029.33 826.83 1029.33 715.67L1029 0Z"/><path transform="translate(14127.172,0)" d="M160 1243.67V1465H400.66V1243.67ZM160 0V1080H400.66V0Z"/><path transform="translate(14626.103,0)" d="M557.33 -29.67Q356.83 -29.67 232.08 60.17Q107.33 150 80 313.33L326 351Q344.66 271 410 225.16Q475.33 179.33 574.33 179.33Q660.5 179.33 708.25 213.58Q756 247.83 756 308.33Q756 344.83 738.34 367.33Q720.67 389.83 661.83 410.83Q603 431.83 481 464.33Q345.33 499.67 265.25 541.25Q185.17 582.83 150.25 639.83Q115.33 696.83 115.33 778Q115.33 879 168 953.75Q220.67 1028.5 316.08 1069.25Q411.5 1110 540.33 1110Q666 1110 763.58 1070.92Q861.17 1031.83 921.33 960.08Q981.5 888.33 994.67 791.33L748.67 747Q739.67 815.84 686.08 855.92Q632.5 896 544.33 901Q459.33 905.5 407.16 875.17Q355 844.84 355 790.33Q355 758.5 376.08 736.58Q397.16 714.67 460.41 693Q523.66 671.33 650 639.33Q779.5 605.83 856.66 563.42Q933.83 521 968.25 462.08Q1002.67 403.17 1002.67 319.33Q1002.67 156.5 884.33 63.42Q766 -29.67 557.33 -29.67Z"/><path transform="translate(15647.034,0)" d="M773 0Q666.17 -20.5 563.42 -17.67Q460.67 -14.83 379.92 20.33Q299.17 55.5 257.33 132.67Q220 203.17 217.83 276Q215.67 348.83 215.67 441.33V1380H456.33V454.66Q456.33 390.5 457.83 341.25Q459.33 292 478.33 260.66Q514.33 201.16 593.16 194.25Q672 187.33 773 201.66ZM20 891V1080H773V891Z"/><path transform="translate(16450.966,0)" d="M140 0V1080H353V817L327 851Q347.33 905 380.83 949.67Q414.33 994.33 461 1023.33Q500.83 1050.5 549.25 1065.5Q597.66 1080.5 648.66 1084Q699.66 1087.5 748.33 1080V855Q699.66 869.17 637.58 863.84Q575.5 858.5 524.66 829.34Q475.16 802.17 443.75 760.25Q412.33 718.33 397.33 664.83Q382.33 611.33 382.33 548.67V0Z"/><path transform="translate(17186.897,0)" d="M282 -480 490.33 90.67 494 -77.33 23.33 1080H273.66L607.67 223.66H543.67L868.67 1080H1110.33L507.66 -480Z"/><path transform="translate(18243.828,0)" d="M180 0V246.66H426.66V0Z"/></g><g aria-label="Molecules to solids." fill="#2DB9A8" transform="translate(62,342) scale(0.029,-0.029)"><path transform="translate(0.000,0)" d="M140 0V1440H356.66L855.33 420.33L1353 1440H1570.33V0.33H1344.67V923.01L903 0H807.33L365.66 923.01V0Z"/><path transform="translate(1647.931,0)" d="M617.33 -30Q454.83 -30 334 43Q213.17 116 146.58 244.58Q80 373.17 80 540.33Q80 709.5 148 837.92Q216 966.33 336.92 1038.17Q457.83 1110 617.33 1110Q780 1110 901.25 1037.08Q1022.5 964.17 1089.41 835.75Q1156.33 707.33 1156.33 540.33Q1156.33 371.83 1088.91 243.33Q1021.5 114.83 900.17 42.42Q778.83 -30 617.33 -30ZM617.33 195.66Q760.5 195.66 830.92 292Q901.34 388.33 901.34 540.33Q901.34 697.17 830 790.75Q758.67 884.34 617.33 884.34Q520.33 884.34 457.91 840.67Q395.5 797 365.25 719.67Q335 642.33 335 540.33Q335 382.83 406.66 289.25Q478.33 195.66 617.33 195.66Z"/><path transform="translate(2821.862,0)" d="M160 0V1470H400.66V0Z"/><path transform="translate(3320.793,0)" d="M630.67 -30Q466.83 -30 343 41.08Q219.17 112.17 149.58 238.08Q80 364 80 528.33Q80 705.33 148.25 835.83Q216.5 966.33 337.42 1038.17Q458.33 1110 617.33 1110Q784.83 1110 902.33 1031.67Q1019.83 953.33 1077.08 810.33Q1134.33 667.33 1120.17 472.67H881V560.67Q880 737 819 818.17Q758 899.34 627.33 899.34Q479.5 899.34 407.25 807.67Q335 716 335 540Q335 375.67 407.25 285.66Q479.5 195.66 617.33 195.66Q706.33 195.66 770.67 235.33Q835 275 870 349.67L1108.33 278Q1046.5 131.67 916.75 50.83Q787 -30 630.67 -30ZM259 472.67V655H1002.33V472.67Z"/><path transform="translate(4462.724,0)" d="M609 -30Q442.17 -30 324 44.5Q205.83 119 143.17 247.92Q80.5 376.83 80 540Q80.5 705.5 145.33 834.33Q210.17 963.17 329.17 1036.58Q448.17 1110 612.33 1110Q796.5 1110 924 1017.67Q1051.5 925.33 1089.66 765.34L849.67 699.67Q822.17 787 757 835.67Q691.83 884.34 609 884.34Q514.66 884.34 454 839.5Q393.33 794.67 364.33 716.84Q335.33 639 335 540Q335.5 385.83 404.41 290.75Q473.33 195.66 609 195.66Q705.5 195.66 760.83 239.83Q816.17 284 844.34 366.66L1089.66 312.33Q1040.16 147.33 915.16 58.67Q790.16 -30 609 -30Z"/><path transform="translate(5551.655,0)" d="M544.67 -30.67Q425.17 -30.67 347.08 9Q269 48.67 223 110.92Q177 173.17 155 243.25Q133 313.33 126.5 375.92Q120 438.5 120 477V1080H364V559.67Q364 509.66 371.25 447.58Q378.5 385.5 403.66 327.91Q428.83 270.33 479.33 233.33Q529.83 196.33 616.33 196.33Q662 196.33 706.92 211.25Q751.83 226.16 788.17 262.41Q824.5 298.67 846.58 362.92Q868.67 427.17 868.67 525L1011.67 463.67Q1011.67 326.17 958.17 213.92Q904.67 101.67 800.83 35.5Q697 -30.67 544.67 -30.67ZM898 0V335H868.67V1080H1111V0Z"/><path transform="translate(6740.586,0)" d="M160 0V1470H400.66V0Z"/><path transform="translate(7239.517,0)" d="M630.67 -30Q466.83 -30 343 41.08Q219.17 112.17 149.58 238.08Q80 364 80 528.33Q80 705.33 148.25 835.83Q216.5 966.33 337.42 1038.17Q458.33 1110 617.33 1110Q784.83 1110 902.33 1031.67Q1019.83 953.33 1077.08 810.33Q1134.33 667.33 1120.17 472.67H881V560.67Q880 737 819 818.17Q758 899.34 627.33 899.34Q479.5 899.34 407.25 807.67Q335 716 335 540Q335 375.67 407.25 285.66Q479.5 195.66 617.33 195.66Q706.33 195.66 770.67 235.33Q835 275 870 349.67L1108.33 278Q1046.5 131.67 916.75 50.83Q787 -30 630.67 -30ZM259 472.67V655H1002.33V472.67Z"/><path transform="translate(8381.448,0)" d="M557.33 -29.67Q356.83 -29.67 232.08 60.17Q107.33 150 80 313.33L326 351Q344.66 271 410 225.16Q475.33 179.33 574.33 179.33Q660.5 179.33 708.25 213.58Q756 247.83 756 308.33Q756 344.83 738.34 367.33Q720.67 389.83 661.83 410.83Q603 431.83 481 464.33Q345.33 499.67 265.25 541.25Q185.17 582.83 150.25 639.83Q115.33 696.83 115.33 778Q115.33 879 168 953.75Q220.67 1028.5 316.08 1069.25Q411.5 1110 540.33 1110Q666 1110 763.58 1070.92Q861.17 1031.83 921.33 960.08Q981.5 888.33 994.67 791.33L748.67 747Q739.67 815.84 686.08 855.92Q632.5 896 544.33 901Q459.33 905.5 407.16 875.17Q355 844.84 355 790.33Q355 758.5 376.08 736.58Q397.16 714.67 460.41 693Q523.66 671.33 650 639.33Q779.5 605.83 856.66 563.42Q933.83 521 968.25 462.08Q1002.67 403.17 1002.67 319.33Q1002.67 156.5 884.33 63.42Q766 -29.67 557.33 -29.67Z"/><path transform="translate(9740.310,0)" d="M773 0Q666.17 -20.5 563.42 -17.67Q460.67 -14.83 379.92 20.33Q299.17 55.5 257.33 132.67Q220 203.17 217.83 276Q215.67 348.83 215.67 441.33V1380H456.33V454.66Q456.33 390.5 457.83 341.25Q459.33 292 478.33 260.66Q514.33 201.16 593.16 194.25Q672 187.33 773 201.66ZM20 891V1080H773V891Z"/><path transform="translate(10544.241,0)" d="M617.33 -30Q454.83 -30 334 43Q213.17 116 146.58 244.58Q80 373.17 80 540.33Q80 709.5 148 837.92Q216 966.33 336.92 1038.17Q457.83 1110 617.33 1110Q780 1110 901.25 1037.08Q1022.5 964.17 1089.41 835.75Q1156.33 707.33 1156.33 540.33Q1156.33 371.83 1088.91 243.33Q1021.5 114.83 900.17 42.42Q778.83 -30 617.33 -30ZM617.33 195.66Q760.5 195.66 830.92 292Q901.34 388.33 901.34 540.33Q901.34 697.17 830 790.75Q758.67 884.34 617.33 884.34Q520.33 884.34 457.91 840.67Q395.5 797 365.25 719.67Q335 642.33 335 540.33Q335 382.83 406.66 289.25Q478.33 195.66 617.33 195.66Z"/><path transform="translate(12056.103,0)" d="M557.33 -29.67Q356.83 -29.67 232.08 60.17Q107.33 150 80 313.33L326 351Q344.66 271 410 225.16Q475.33 179.33 574.33 179.33Q660.5 179.33 708.25 213.58Q756 247.83 756 308.33Q756 344.83 738.34 367.33Q720.67 389.83 661.83 410.83Q603 431.83 481 464.33Q345.33 499.67 265.25 541.25Q185.17 582.83 150.25 639.83Q115.33 696.83 115.33 778Q115.33 879 168 953.75Q220.67 1028.5 316.08 1069.25Q411.5 1110 540.33 1110Q666 1110 763.58 1070.92Q861.17 1031.83 921.33 960.08Q981.5 888.33 994.67 791.33L748.67 747Q739.67 815.84 686.08 855.92Q632.5 896 544.33 901Q459.33 905.5 407.16 875.17Q355 844.84 355 790.33Q355 758.5 376.08 736.58Q397.16 714.67 460.41 693Q523.66 671.33 650 639.33Q779.5 605.83 856.66 563.42Q933.83 521 968.25 462.08Q1002.67 403.17 1002.67 319.33Q1002.67 156.5 884.33 63.42Q766 -29.67 557.33 -29.67Z"/><path transform="translate(13077.034,0)" d="M617.33 -30Q454.83 -30 334 43Q213.17 116 146.58 244.58Q80 373.17 80 540.33Q80 709.5 148 837.92Q216 966.33 336.92 1038.17Q457.83 1110 617.33 1110Q780 1110 901.25 1037.08Q1022.5 964.17 1089.41 835.75Q1156.33 707.33 1156.33 540.33Q1156.33 371.83 1088.91 243.33Q1021.5 114.83 900.17 42.42Q778.83 -30 617.33 -30ZM617.33 195.66Q760.5 195.66 830.92 292Q901.34 388.33 901.34 540.33Q901.34 697.17 830 790.75Q758.67 884.34 617.33 884.34Q520.33 884.34 457.91 840.67Q395.5 797 365.25 719.67Q335 642.33 335 540.33Q335 382.83 406.66 289.25Q478.33 195.66 617.33 195.66Z"/><path transform="translate(14250.966,0)" d="M160 0V1470H400.66V0Z"/><path transform="translate(14749.897,0)" d="M160 1243.67V1465H400.66V1243.67ZM160 0V1080H400.66V0Z"/><path transform="translate(15248.828,0)" d="M573.33 -30Q423.67 -30 312.92 45.08Q202.17 120.17 141.08 249.25Q80 378.33 80 540.33Q80 704.33 141.75 832.92Q203.5 961.5 316.25 1035.75Q429 1110 582.33 1110Q735.83 1110 840.58 1035.25Q945.33 960.5 999.17 831.58Q1053 702.67 1053 540.33Q1053 378.5 998.83 249.42Q944.67 120.33 838 45.17Q731.33 -30 573.33 -30ZM610 185.66Q707 185.66 766.67 230.5Q826.33 275.33 853.5 355.42Q880.67 435.5 880.67 540.33Q880.67 645.5 853.42 725.42Q826.17 805.34 768.17 849.84Q710.17 894.34 618.33 894.34Q521 894.34 458.16 846.67Q395.33 799 365.16 718.67Q335 638.33 335 540.33Q335 441.33 364.66 360.83Q394.33 280.33 455.08 233Q515.83 185.66 610 185.66ZM880.67 0V758.34H851.34V1440H1093.66V0Z"/><path transform="translate(16420.759,0)" d="M557.33 -29.67Q356.83 -29.67 232.08 60.17Q107.33 150 80 313.33L326 351Q344.66 271 410 225.16Q475.33 179.33 574.33 179.33Q660.5 179.33 708.25 213.58Q756 247.83 756 308.33Q756 344.83 738.34 367.33Q720.67 389.83 661.83 410.83Q603 431.83 481 464.33Q345.33 499.67 265.25 541.25Q185.17 582.83 150.25 639.83Q115.33 696.83 115.33 778Q115.33 879 168 953.75Q220.67 1028.5 316.08 1069.25Q411.5 1110 540.33 1110Q666 1110 763.58 1070.92Q861.17 1031.83 921.33 960.08Q981.5 888.33 994.67 791.33L748.67 747Q739.67 815.84 686.08 855.92Q632.5 896 544.33 901Q459.33 905.5 407.16 875.17Q355 844.84 355 790.33Q355 758.5 376.08 736.58Q397.16 714.67 460.41 693Q523.66 671.33 650 639.33Q779.5 605.83 856.66 563.42Q933.83 521 968.25 462.08Q1002.67 403.17 1002.67 319.33Q1002.67 156.5 884.33 63.42Q766 -29.67 557.33 -29.67Z"/><path transform="translate(17441.690,0)" d="M180 0V246.66H426.66V0Z"/></g><g aria-label="Molecular + periodic · Python + C++17" fill="#9DB1AB" transform="translate(65,402) scale(0.01,-0.01)"><path transform="translate(0.000,0)" d="M140 0V1440H288.34L843.67 261.17L1395.5 1440H1546.17V1.17H1391.33V1080.49L890.5 0H795.67L294.84 1080.49V0Z"/><path transform="translate(1686.000,0)" d="M595.67 -30Q434.42 -30 319 43Q203.58 116 141.79 244.79Q80 373.58 80 541.17Q80 710.75 143 838.96Q206 967.17 321.71 1038.58Q437.42 1110 595.67 1110Q757.5 1110 873.13 1037.29Q988.75 964.58 1050.46 836.37Q1112.17 708.17 1112.17 541.17Q1112.17 371.42 1049.96 242.92Q987.75 114.42 871.83 42.21Q755.92 -30 595.67 -30ZM595.67 124.84Q769.25 124.84 854.46 240.75Q939.66 356.67 939.66 541.17Q939.66 730.08 853.75 842.62Q767.83 955.16 595.67 955.16Q478.67 955.16 402.71 902.33Q326.75 849.5 289.63 756.33Q252.5 663.17 252.5 541.17Q252.5 352.42 339.59 238.63Q426.67 124.84 595.67 124.84Z"/><path transform="translate(2878.000,0)" d="M160 0V1470H322.34V0Z"/><path transform="translate(3360.000,0)" d="M602.33 -30Q443.92 -30 326.75 40.04Q209.58 110.08 144.79 237.04Q80 364 80 534.17Q80 711.17 143.88 840.42Q207.75 969.67 323.46 1039.83Q439.17 1110 595.67 1110Q756.92 1110 870.67 1035.83Q984.42 961.67 1042.29 823.67Q1100.17 685.67 1093.08 494.33H928.5V552.33Q925 757 842.75 859.83Q760.5 962.66 600.67 962.66Q430.75 962.66 341.63 853.08Q252.5 743.5 252.5 540Q252.5 342.33 341.63 233.59Q430.75 124.84 595.67 124.84Q707.17 124.84 789.83 176.17Q872.5 227.5 920 323.83L1074.17 268Q1010.25 125.83 884.88 47.92Q759.5 -30 602.33 -30ZM196.5 494.33V627.5H1008.17V494.33Z"/><path transform="translate(4535.000,0)" d="M591.5 -30Q427.58 -30 314 43.25Q200.42 116.5 141.08 245.21Q81.75 373.92 80 540Q81.75 709.25 142.42 837.67Q203.08 966.08 317.08 1038.04Q431.08 1110 593.17 1110Q760.25 1110 882.75 1028.08Q1005.25 946.17 1048.84 803.66L888.83 753.83Q852.58 849.5 773.25 902.33Q693.92 955.16 591.5 955.16Q476.34 955.16 401.5 902Q326.67 848.83 290.17 755.16Q253.67 661.5 252.5 540Q254.25 352.92 339.21 238.88Q424.17 124.84 591.5 124.84Q699.25 124.84 772.92 174.42Q846.58 224 885.16 318.34L1048.84 273.17Q990.59 125.67 873.09 47.83Q755.59 -30 591.5 -30Z"/><path transform="translate(5650.000,0)" d="M551.33 -27.33Q450.58 -27.33 377.29 4Q304 35.33 254.25 88.21Q204.5 141.08 175 207.63Q145.5 274.17 132.75 345.71Q120 417.25 120 484.5V1080H284V533.83Q284 451.34 299.38 377.8Q314.75 304.25 350.34 247.71Q385.92 191.17 443.92 159.17Q501.92 127.17 587.17 127.17Q659.5 127.17 716.71 151.88Q773.92 176.59 813.58 224.71Q853.25 272.83 874.29 343.96Q895.33 415.08 895.33 507.5L1005.83 477.83Q1005.83 316.58 948.58 203.71Q891.33 90.83 789.17 31.75Q687 -27.33 551.33 -27.33ZM913 0V277.5H895.33V1080H1058.5V0Z"/><path transform="translate(6849.000,0)" d="M160 0V1470H322.34V0Z"/><path transform="translate(7331.000,0)" d="M448.17 -30Q326.33 -30 244.37 14.21Q162.42 58.42 121.21 131.46Q80 204.5 80 291Q80 377.67 113.79 439.96Q147.58 502.25 208.12 543.04Q268.67 583.83 349.83 606.5Q429.66 626.75 526.96 642.29Q624.25 657.83 721.08 670.13Q817.91 682.42 896.67 693.83L838.33 659.67Q841.25 811.08 778.62 884.37Q716 957.66 561.33 957.66Q457 957.66 381.79 910.29Q306.59 862.91 276.5 759.17L120.33 805.67Q158.42 949 270.54 1029.5Q382.67 1110 563.67 1110Q710.75 1110 815.33 1056.08Q919.92 1002.17 964.67 896.5Q986.17 848.17 992.17 789.92Q998.17 731.67 998.17 669.33V0H853.5V265.17L891 244.83Q833 109.58 720.21 39.79Q607.42 -30 448.17 -30ZM470 108.17Q569.5 108.17 643.17 143.71Q716.83 179.25 761.91 239.79Q807 300.33 820.33 374.67Q833.75 425.66 835.21 487.37Q836.66 549.08 836.66 581.66L895.67 553.5Q814.33 542.25 728.54 531.66Q642.75 521.08 562.92 508.62Q483.08 496.16 419.5 478.5Q374.25 464.83 333.71 441.96Q293.17 419.08 267.67 382.5Q242.17 345.92 242.17 291.5Q242.17 245.75 265.05 203.79Q287.92 161.84 337.96 135Q388 108.17 470 108.17Z"/><path transform="translate(8449.000,0)" d="M140 0V1080H285.5V819.5L259.5 853.5Q278.17 902.5 307.92 943.83Q337.67 985.17 373.5 1011.67Q415.42 1046.75 469.88 1065.5Q524.34 1084.25 580.34 1087.75Q636.34 1091.25 684.17 1080V927.5Q626.34 942.08 557.8 934.66Q489.25 927.25 431.34 882.66Q378.09 842.58 350.63 787.12Q323.17 731.67 313.17 668.17Q303.17 604.67 303.17 540.33V0Z"/><path transform="translate(9583.000,0)" d="M508 264.17V652.17H120V788.67H508V1175.83H644.5V788.67H1031.67V652.17H644.5V264.17Z"/><path transform="translate(11135.000,0)" d="M630.33 -30Q479.83 -30 376.5 45.58Q273.17 121.17 219.83 250.46Q166.5 379.75 166.5 541.17Q166.5 704.33 219.92 833.04Q273.33 961.75 377.46 1035.87Q481.58 1110 633.83 1110Q783 1110 890.13 1035.13Q997.25 960.25 1054.63 831.46Q1112 702.67 1112 541.17Q1112 379.17 1054.46 249.87Q996.92 120.58 889.29 45.29Q781.67 -30 630.33 -30ZM139.17 -480V1080H284.67V275.84H302.34V-480ZM612 119.84Q721.58 119.84 794.21 175.5Q866.83 231.17 903.16 326.67Q939.5 422.17 939.5 541.17Q939.5 659.17 903.62 754.08Q867.75 849 794.37 904.58Q721 960.16 607.83 960.16Q498.92 960.16 427.17 906.91Q355.42 853.66 320.04 758.96Q284.67 664.25 284.67 541.17Q284.67 419.25 319.75 323.96Q354.84 228.67 427.42 174.25Q500 119.84 612 119.84Z"/><path transform="translate(12327.000,0)" d="M602.33 -30Q443.92 -30 326.75 40.04Q209.58 110.08 144.79 237.04Q80 364 80 534.17Q80 711.17 143.88 840.42Q207.75 969.67 323.46 1039.83Q439.17 1110 595.67 1110Q756.92 1110 870.67 1035.83Q984.42 961.67 1042.29 823.67Q1100.17 685.67 1093.08 494.33H928.5V552.33Q925 757 842.75 859.83Q760.5 962.66 600.67 962.66Q430.75 962.66 341.63 853.08Q252.5 743.5 252.5 540Q252.5 342.33 341.63 233.59Q430.75 124.84 595.67 124.84Q707.17 124.84 789.83 176.17Q872.5 227.5 920 323.83L1074.17 268Q1010.25 125.83 884.88 47.92Q759.5 -30 602.33 -30ZM196.5 494.33V627.5H1008.17V494.33Z"/><path transform="translate(13502.000,0)" d="M140 0V1080H285.5V819.5L259.5 853.5Q278.17 902.5 307.92 943.83Q337.67 985.17 373.5 1011.67Q415.42 1046.75 469.88 1065.5Q524.34 1084.25 580.34 1087.75Q636.34 1091.25 684.17 1080V927.5Q626.34 942.08 557.8 934.66Q489.25 927.25 431.34 882.66Q378.09 842.58 350.63 787.12Q323.17 731.67 313.17 668.17Q303.17 604.67 303.17 540.33V0Z"/><path transform="translate(14236.000,0)" d="M160 1277.83V1452.5H322.34V1277.83ZM160 0V1080H322.34V0Z"/><path transform="translate(14718.000,0)" d="M595.67 -30Q434.42 -30 319 43Q203.58 116 141.79 244.79Q80 373.58 80 541.17Q80 710.75 143 838.96Q206 967.17 321.71 1038.58Q437.42 1110 595.67 1110Q757.5 1110 873.13 1037.29Q988.75 964.58 1050.46 836.37Q1112.17 708.17 1112.17 541.17Q1112.17 371.42 1049.96 242.92Q987.75 114.42 871.83 42.21Q755.92 -30 595.67 -30ZM595.67 124.84Q769.25 124.84 854.46 240.75Q939.66 356.67 939.66 541.17Q939.66 730.08 853.75 842.62Q767.83 955.16 595.67 955.16Q478.67 955.16 402.71 902.33Q326.75 849.5 289.63 756.33Q252.5 663.17 252.5 541.17Q252.5 352.42 339.59 238.63Q426.67 124.84 595.67 124.84Z"/><path transform="translate(15910.000,0)" d="M561.67 -30Q410.33 -30 302.71 45.29Q195.08 120.58 137.54 249.87Q80 379.17 80 541.17Q80 702.67 137.38 831.46Q194.75 960.25 301.88 1035.13Q409 1110 558.17 1110Q710.42 1110 814.54 1035.87Q918.67 961.75 972.08 833.04Q1025.5 704.33 1025.5 541.17Q1025.5 379.75 972.17 250.46Q918.83 121.17 815.5 45.58Q712.17 -30 561.67 -30ZM580 119.84Q692 119.84 764.58 174.25Q837.17 228.67 872.25 323.96Q907.33 419.25 907.33 541.17Q907.33 664.25 871.96 758.96Q836.58 853.66 764.83 906.91Q693.08 960.16 584.17 960.16Q471 960.16 397.34 904.58Q323.67 849 288.09 754.08Q252.5 659.17 252.5 541.17Q252.5 422.17 288.84 326.67Q325.17 231.17 397.79 175.5Q470.42 119.84 580 119.84ZM907.33 0V804.16H889.66V1440H1052.84V0Z"/><path transform="translate(17103.000,0)" d="M160 1277.83V1452.5H322.34V1277.83ZM160 0V1080H322.34V0Z"/><path transform="translate(17585.000,0)" d="M591.5 -30Q427.58 -30 314 43.25Q200.42 116.5 141.08 245.21Q81.75 373.92 80 540Q81.75 709.25 142.42 837.67Q203.08 966.08 317.08 1038.04Q431.08 1110 593.17 1110Q760.25 1110 882.75 1028.08Q1005.25 946.17 1048.84 803.66L888.83 753.83Q852.58 849.5 773.25 902.33Q693.92 955.16 591.5 955.16Q476.34 955.16 401.5 902Q326.67 848.83 290.17 755.16Q253.67 661.5 252.5 540Q254.25 352.92 339.21 238.88Q424.17 124.84 591.5 124.84Q699.25 124.84 772.92 174.42Q846.58 224 885.16 318.34L1048.84 273.17Q990.59 125.67 873.09 47.83Q755.59 -30 591.5 -30Z"/><path transform="translate(19100.000,0)" d="M236.17 516.67Q187.58 516.67 153.79 549.04Q120 581.42 120 630Q120 679.17 153.79 711.25Q187.58 743.33 236.17 743.33Q281.09 743.33 313.88 711.25Q346.67 679.17 346.67 630Q346.67 581.42 313.88 549.04Q281.09 516.67 236.17 516.67Z"/><path transform="translate(19967.000,0)" d="M140 0V1440H702.5Q723.5 1440 751.13 1438.5Q778.75 1437 806.17 1432Q920.59 1414.33 999.59 1352.54Q1078.59 1290.75 1119.04 1196.92Q1159.5 1103.08 1159.5 989.67Q1159.5 876.25 1118.84 782.42Q1078.17 688.58 999.17 626.79Q920.17 565 806.17 547.33Q778.75 543.33 750.92 541.33Q723.08 539.33 702.5 539.33H302.34V0ZM302.34 694.17H697.5Q716.17 694.17 740.29 696.17Q764.42 698.17 787.17 703Q858.5 718.59 903.96 762.54Q949.42 806.5 971.12 866.33Q992.83 926.17 992.83 989.67Q992.83 1053.16 971.12 1113Q949.42 1172.83 903.96 1216.79Q858.5 1260.75 787.17 1276.33Q764.42 1281.75 740.29 1283.45Q716.17 1285.16 697.5 1285.16H302.34Z"/><path transform="translate(21187.000,0)" d="M292 -480 501.17 87.33 504 -80.67 31.67 1080H202.84L581.83 127.84H517.83L870.33 1080H1036.17L451.84 -480Z"/><path transform="translate(22252.000,0)" d="M735.5 0Q641.58 -19.25 550.71 -15.58Q459.83 -11.92 388.46 22.42Q317.08 56.75 280.67 129.33Q250 191.08 247.42 254.75Q244.83 318.42 244.83 399.67V1380H407.17V406.34Q407.17 339.25 408.67 293.13Q410.17 247 429.17 212.34Q465.17 146.59 543.59 134.88Q622 123.17 735.5 140.84ZM20 943.5V1080H735.5V943.5Z"/><path transform="translate(23064.000,0)" d="M914.5 0V546.17Q914.5 629.25 899.12 702.5Q883.75 775.75 848.17 832.29Q812.58 888.83 754.58 920.83Q696.58 952.83 611.33 952.83Q539 952.83 481.79 928.12Q424.59 903.41 384.92 855.29Q345.25 807.17 324.21 736.25Q303.17 665.33 303.17 572.5L192.67 602.17Q192.67 763.42 249.92 876.29Q307.17 989.17 409.34 1048.25Q511.5 1107.33 647.17 1107.33Q747.92 1107.33 821.21 1076Q894.5 1044.67 944.25 991.79Q994 938.92 1023.5 872.37Q1053 805.83 1065.75 734.29Q1078.5 662.75 1078.5 595.5V0ZM139.17 0V1440H285.5V635.84H303.17V0Z"/><path transform="translate(24263.000,0)" d="M595.67 -30Q434.42 -30 319 43Q203.58 116 141.79 244.79Q80 373.58 80 541.17Q80 710.75 143 838.96Q206 967.17 321.71 1038.58Q437.42 1110 595.67 1110Q757.5 1110 873.13 1037.29Q988.75 964.58 1050.46 836.37Q1112.17 708.17 1112.17 541.17Q1112.17 371.42 1049.96 242.92Q987.75 114.42 871.83 42.21Q755.92 -30 595.67 -30ZM595.67 124.84Q769.25 124.84 854.46 240.75Q939.66 356.67 939.66 541.17Q939.66 730.08 853.75 842.62Q767.83 955.16 595.67 955.16Q478.67 955.16 402.71 902.33Q326.75 849.5 289.63 756.33Q252.5 663.17 252.5 541.17Q252.5 352.42 339.59 238.63Q426.67 124.84 595.67 124.84Z"/><path transform="translate(25455.000,0)" d="M914.5 0V546.17Q914.5 629.25 899.12 702.5Q883.75 775.75 848.17 832.29Q812.58 888.83 754.58 920.83Q696.58 952.83 611.33 952.83Q539 952.83 481.79 928.12Q424.59 903.41 384.92 855.29Q345.25 807.17 324.21 736.25Q303.17 665.33 303.17 572.5L192.67 602.17Q192.67 763.42 249.92 876.29Q307.17 989.17 409.34 1048.25Q511.5 1107.33 647.17 1107.33Q747.92 1107.33 821.21 1076Q894.5 1044.67 944.25 991.79Q994 938.92 1023.5 872.37Q1053 805.83 1065.75 734.29Q1078.5 662.75 1078.5 595.5V0ZM139.17 0V1080H285.5V802.5H303.17V0Z"/><path transform="translate(27054.000,0)" d="M508 264.17V652.17H120V788.67H508V1175.83H644.5V788.67H1031.67V652.17H644.5V264.17Z"/><path transform="translate(28606.000,0)" d="M727.67 -30Q512.25 -30 363.33 65.17Q214.42 160.33 137.21 329.33Q60 498.33 60 720Q60 941.67 137.21 1110.67Q214.42 1279.67 363.33 1374.83Q512.25 1470 727.67 1470Q978 1470 1138.04 1342.04Q1298.08 1214.08 1358.34 998.83L1192.83 955.5Q1148.16 1121.5 1031.87 1217.91Q915.58 1314.33 727.67 1314.33Q562.67 1314.33 453.09 1239.33Q343.5 1164.33 288.17 1030.29Q232.84 896.25 231.67 720Q230.5 543.75 285.84 410Q341.17 276.25 451.92 200.96Q562.67 125.67 727.67 125.67Q915.58 125.67 1031.87 222.59Q1148.16 319.5 1192.83 484.5L1358.34 441.17Q1298.08 225.92 1138.04 97.96Q978 -30 727.67 -30Z"/><path transform="translate(30044.000,0)" d="M508 264.17V652.17H120V788.67H508V1175.83H644.5V788.67H1031.67V652.17H644.5V264.17Z"/><path transform="translate(31196.000,0)" d="M508 264.17V652.17H120V788.67H508V1175.83H644.5V788.67H1031.67V652.17H644.5V264.17Z"/><path transform="translate(32348.000,0)" d="M391.17 0V1259.5L120 1095.83V1278L391.17 1440H556V0Z"/><path transform="translate(33144.000,0)" d="M216.67 0 740.33 1283.16H80V1440H914.5V1283.16L391.67 0Z"/></g><path d="M836 211L929 211" stroke="#2DB9A8" stroke-opacity=".45" stroke-width="2"/><path d="M836 211L884 172" stroke="#2DB9A8" stroke-opacity=".45" stroke-width="2"/><path d="M836 211L836 316" stroke="#2DB9A8" stroke-opacity=".45" stroke-width="2"/><path d="M836 316L929 316" stroke="#2DB9A8" stroke-opacity=".45" stroke-width="2"/><path d="M836 316L884 277" stroke="#2DB9A8" stroke-opacity=".45" stroke-width="2"/><path d="M884 172L977 172" stroke="#2DB9A8" stroke-opacity=".45" stroke-width="2"/><path d="M884 172L884 277" stroke="#2DB9A8" stroke-opacity=".45" stroke-width="2"/><path d="M884 277L977 277" stroke="#2DB9A8" stroke-opacity=".45" stroke-width="2"/><path d="M929 211L1022 211" stroke="#2DB9A8" stroke-opacity=".45" stroke-width="2"/><path d="M929 211L977 172" stroke="#2DB9A8" stroke-opacity=".45" stroke-width="2"/><path d="M929 211L929 316" stroke="#2DB9A8" stroke-opacity=".45" stroke-width="2"/><path d="M929 316L1022 316" stroke="#2DB9A8" stroke-opacity=".45" stroke-width="2"/><path d="M929 316L977 277" stroke="#2DB9A8" stroke-opacity=".45" stroke-width="2"/><path d="M977 172L1070 172" stroke="#2DB9A8" stroke-opacity=".45" stroke-width="2"/><path d="M977 172L977 277" stroke="#2DB9A8" stroke-opacity=".45" stroke-width="2"/><path d="M977 277L1070 277" stroke="#2DB9A8" stroke-opacity=".45" stroke-width="2"/><path d="M1022 211L1070 172" stroke="#2DB9A8" stroke-opacity=".45" stroke-width="2"/><path d="M1022 211L1022 316" stroke="#2DB9A8" stroke-opacity=".45" stroke-width="2"/><path d="M1022 316L1070 277" stroke="#2DB9A8" stroke-opacity=".45" stroke-width="2"/><path d="M1070 172L1070 277" stroke="#2DB9A8" stroke-opacity=".45" stroke-width="2"/><circle cx="836" cy="211" r="5" fill="#75DBCA"/><circle cx="836" cy="316" r="5" fill="#75DBCA"/><circle cx="884" cy="172" r="5" fill="#75DBCA"/><circle cx="884" cy="277" r="5" fill="#75DBCA"/><circle cx="929" cy="211" r="5" fill="#75DBCA"/><circle cx="929" cy="316" r="5" fill="#75DBCA"/><circle cx="977" cy="172" r="5" fill="#75DBCA"/><circle cx="977" cy="277" r="5" fill="#75DBCA"/><circle cx="1022" cy="211" r="5" fill="#75DBCA"/><circle cx="1022" cy="316" r="5" fill="#75DBCA"/><circle cx="1070" cy="172" r="5" fill="#75DBCA"/><circle cx="1070" cy="277" r="5" fill="#75DBCA"/><ellipse cx="925" cy="270" rx="71" ry="28" transform="rotate(-32 925 270)" fill="url(#teal)"/><ellipse cx="1020" cy="313" rx="62" ry="26" transform="rotate(-32 1020 313)" fill="url(#coral)"/><path d="M64 482H1136" stroke="#29473E"/><g aria-label="Independent by design." fill="#ECF3F1" transform="translate(64,548) scale(0.012,-0.012)"><path transform="translate(0.000,0)" d="M160 0V1440H353.66V0Z"/><path transform="translate(514.000,0)" d="M903.5 0V535.83Q903.5 605.75 891.38 674.5Q879.25 743.25 847.83 800.21Q816.42 857.17 761.42 891.17Q706.42 925.17 620.67 925.17Q559 925.17 506.71 904.38Q454.41 883.59 416.08 840.21Q377.75 796.83 356.29 728.75Q334.83 660.67 334.83 565.5L211.33 607.83Q211.33 759.58 267.08 872.21Q322.83 984.83 425.66 1046.75Q528.5 1108.67 670.83 1108.67Q779.08 1108.67 854.29 1074Q929.5 1039.33 977.75 982.71Q1026 926.08 1052.5 858.13Q1079 790.17 1089.25 722.21Q1099.5 654.25 1099.5 598.5V0ZM138.83 0V1080H312.5V779.5H334.83V0Z"/><path transform="translate(1733.000,0)" d="M566.33 -30Q415.67 -30 306.79 45.21Q197.92 120.42 138.96 249.63Q80 378.83 80 540.83Q80 703.33 139.12 832.04Q198.25 960.75 307.62 1035.37Q417 1110 567.83 1110Q720.58 1110 824.96 1035.63Q929.33 961.25 982.92 832.46Q1036.5 703.67 1036.5 540.83Q1036.5 379.25 982.83 250.04Q929.17 120.83 824.5 45.42Q719.83 -30 566.33 -30ZM592 146.16Q698 146.16 765.42 196.75Q832.83 247.33 864.75 336.54Q896.67 425.75 896.67 540.83Q896.67 656.75 864.54 745.54Q832.42 834.34 766.17 884.09Q699.92 933.84 597.83 933.84Q491 933.84 421.66 881.42Q352.33 829 318.91 739.92Q285.5 650.83 285.5 540.83Q285.5 429.83 319.16 340.33Q352.83 250.83 420.71 198.5Q488.58 146.16 592 146.16ZM896.67 0V785.84H874.34V1440H1069.16V0Z"/><path transform="translate(2942.000,0)" d="M613.67 -30Q453.08 -30 333.25 40.46Q213.42 110.92 146.71 237.46Q80 364 80 531.83Q80 708.83 145.62 838.58Q211.25 968.33 329.04 1039.17Q446.83 1110 604.33 1110Q768.08 1110 883.33 1034.17Q998.58 958.33 1056.21 818.33Q1113.83 678.33 1103.92 485.67H909.5V555.67Q907 749 833.25 843.17Q759.5 937.34 611.33 937.34Q450.25 937.34 367.87 834.92Q285.5 732.5 285.5 540Q285.5 355.67 367.87 254.41Q450.25 153.16 604.33 153.16Q706.83 153.16 782.17 199.83Q857.5 246.5 900 334.17L1087.83 272Q1024.75 128.17 897.62 49.08Q770.5 -30 613.67 -30ZM221.5 485.67V638.5H1005.83V485.67Z"/><path transform="translate(4129.000,0)" d="M641.67 -30Q488.17 -30 383.5 45.42Q278.83 120.83 225.17 250.04Q171.5 379.25 171.5 540.83Q171.5 703.67 225.08 832.46Q278.67 961.25 383.04 1035.63Q487.42 1110 640.17 1110Q791 1110 900.37 1035.37Q1009.75 960.75 1068.87 832.04Q1128 703.33 1128 540.83Q1128 378.83 1069.04 249.63Q1010.08 120.42 901.21 45.21Q792.33 -30 641.67 -30ZM138.83 -480V1080H311.33V294.16H333.66V-480ZM616 146.16Q719.42 146.16 787.29 198.5Q855.17 250.83 888.84 340.33Q922.5 429.83 922.5 540.83Q922.5 650.83 888.88 739.92Q855.25 829 786.13 881.42Q717 933.84 610.17 933.84Q508.08 933.84 441.83 884.09Q375.58 834.34 343.46 745.54Q311.33 656.75 311.33 540.83Q311.33 425.75 343.25 336.54Q375.16 247.33 442.58 196.75Q510 146.16 616 146.16Z"/><path transform="translate(5337.000,0)" d="M613.67 -30Q453.08 -30 333.25 40.46Q213.42 110.92 146.71 237.46Q80 364 80 531.83Q80 708.83 145.62 838.58Q211.25 968.33 329.04 1039.17Q446.83 1110 604.33 1110Q768.08 1110 883.33 1034.17Q998.58 958.33 1056.21 818.33Q1113.83 678.33 1103.92 485.67H909.5V555.67Q907 749 833.25 843.17Q759.5 937.34 611.33 937.34Q450.25 937.34 367.87 834.92Q285.5 732.5 285.5 540Q285.5 355.67 367.87 254.41Q450.25 153.16 604.33 153.16Q706.83 153.16 782.17 199.83Q857.5 246.5 900 334.17L1087.83 272Q1024.75 128.17 897.62 49.08Q770.5 -30 613.67 -30ZM221.5 485.67V638.5H1005.83V485.67Z"/><path transform="translate(6524.000,0)" d="M903.5 0V535.83Q903.5 605.75 891.38 674.5Q879.25 743.25 847.83 800.21Q816.42 857.17 761.42 891.17Q706.42 925.17 620.67 925.17Q559 925.17 506.71 904.38Q454.41 883.59 416.08 840.21Q377.75 796.83 356.29 728.75Q334.83 660.67 334.83 565.5L211.33 607.83Q211.33 759.58 267.08 872.21Q322.83 984.83 425.66 1046.75Q528.5 1108.67 670.83 1108.67Q779.08 1108.67 854.29 1074Q929.5 1039.33 977.75 982.71Q1026 926.08 1052.5 858.13Q1079 790.17 1089.25 722.21Q1099.5 654.25 1099.5 598.5V0ZM138.83 0V1080H312.5V779.5H334.83V0Z"/><path transform="translate(7743.000,0)" d="M566.33 -30Q415.67 -30 306.79 45.21Q197.92 120.42 138.96 249.63Q80 378.83 80 540.83Q80 703.33 139.12 832.04Q198.25 960.75 307.62 1035.37Q417 1110 567.83 1110Q720.58 1110 824.96 1035.63Q929.33 961.25 982.92 832.46Q1036.5 703.67 1036.5 540.83Q1036.5 379.25 982.83 250.04Q929.17 120.83 824.5 45.42Q719.83 -30 566.33 -30ZM592 146.16Q698 146.16 765.42 196.75Q832.83 247.33 864.75 336.54Q896.67 425.75 896.67 540.83Q896.67 656.75 864.54 745.54Q832.42 834.34 766.17 884.09Q699.92 933.84 597.83 933.84Q491 933.84 421.66 881.42Q352.33 829 318.91 739.92Q285.5 650.83 285.5 540.83Q285.5 429.83 319.16 340.33Q352.83 250.83 420.71 198.5Q488.58 146.16 592 146.16ZM896.67 0V785.84H874.34V1440H1069.16V0Z"/><path transform="translate(8952.000,0)" d="M613.67 -30Q453.08 -30 333.25 40.46Q213.42 110.92 146.71 237.46Q80 364 80 531.83Q80 708.83 145.62 838.58Q211.25 968.33 329.04 1039.17Q446.83 1110 604.33 1110Q768.08 1110 883.33 1034.17Q998.58 958.33 1056.21 818.33Q1113.83 678.33 1103.92 485.67H909.5V555.67Q907 749 833.25 843.17Q759.5 937.34 611.33 937.34Q450.25 937.34 367.87 834.92Q285.5 732.5 285.5 540Q285.5 355.67 367.87 254.41Q450.25 153.16 604.33 153.16Q706.83 153.16 782.17 199.83Q857.5 246.5 900 334.17L1087.83 272Q1024.75 128.17 897.62 49.08Q770.5 -30 613.67 -30ZM221.5 485.67V638.5H1005.83V485.67Z"/><path transform="translate(10139.000,0)" d="M903.5 0V535.83Q903.5 605.75 891.38 674.5Q879.25 743.25 847.83 800.21Q816.42 857.17 761.42 891.17Q706.42 925.17 620.67 925.17Q559 925.17 506.71 904.38Q454.41 883.59 416.08 840.21Q377.75 796.83 356.29 728.75Q334.83 660.67 334.83 565.5L211.33 607.83Q211.33 759.58 267.08 872.21Q322.83 984.83 425.66 1046.75Q528.5 1108.67 670.83 1108.67Q779.08 1108.67 854.29 1074Q929.5 1039.33 977.75 982.71Q1026 926.08 1052.5 858.13Q1079 790.17 1089.25 722.21Q1099.5 654.25 1099.5 598.5V0ZM138.83 0V1080H312.5V779.5H334.83V0Z"/><path transform="translate(11358.000,0)" d="M750.5 0Q651.42 -19.75 555.79 -16.42Q460.17 -13.08 385.04 21.58Q309.92 56.25 271.33 130.67Q238 195.92 235.58 263.25Q233.17 330.58 233.17 416.33V1380H426.83V425.66Q426.83 359.75 428.33 312.37Q429.83 265 448.83 231.66Q484.83 168.41 563.41 158.62Q642 148.83 750.5 165.16ZM20 922.5V1080H750.5V922.5Z"/><path transform="translate(12592.000,0)" d="M641.67 -30Q488.17 -30 383.5 45.42Q278.83 120.83 225.17 250.04Q171.5 379.25 171.5 540.83Q171.5 703.67 225.08 832.46Q278.67 961.25 383.04 1035.63Q487.42 1110 640.17 1110Q791 1110 900.37 1035.37Q1009.75 960.75 1068.87 832.04Q1128 703.33 1128 540.83Q1128 378.83 1069.04 249.63Q1010.08 120.42 901.21 45.21Q792.33 -30 641.67 -30ZM138.83 0V1440H333.66V785.84H311.33V0ZM616 146.16Q719.42 146.16 787.29 198.5Q855.17 250.83 888.84 340.33Q922.5 429.83 922.5 540.83Q922.5 650.83 888.88 739.92Q855.25 829 786.13 881.42Q717 933.84 610.17 933.84Q508.08 933.84 441.83 884.09Q375.58 834.34 343.46 745.54Q311.33 656.75 311.33 540.83Q311.33 425.75 343.25 336.54Q375.16 247.33 442.58 196.75Q510 146.16 616 146.16Z"/><path transform="translate(13800.000,0)" d="M288 -480 496.83 88.67 500 -79.33 28.33 1080H231.16L592.17 166.16H528.17L869.67 1080H1065.83L474.16 -480Z"/><path transform="translate(15287.000,0)" d="M566.33 -30Q415.67 -30 306.79 45.21Q197.92 120.42 138.96 249.63Q80 378.83 80 540.83Q80 703.33 139.12 832.04Q198.25 960.75 307.62 1035.37Q417 1110 567.83 1110Q720.58 1110 824.96 1035.63Q929.33 961.25 982.92 832.46Q1036.5 703.67 1036.5 540.83Q1036.5 379.25 982.83 250.04Q929.17 120.83 824.5 45.42Q719.83 -30 566.33 -30ZM592 146.16Q698 146.16 765.42 196.75Q832.83 247.33 864.75 336.54Q896.67 425.75 896.67 540.83Q896.67 656.75 864.54 745.54Q832.42 834.34 766.17 884.09Q699.92 933.84 597.83 933.84Q491 933.84 421.66 881.42Q352.33 829 318.91 739.92Q285.5 650.83 285.5 540.83Q285.5 429.83 319.16 340.33Q352.83 250.83 420.71 198.5Q488.58 146.16 592 146.16ZM896.67 0V785.84H874.34V1440H1069.16V0Z"/><path transform="translate(16496.000,0)" d="M613.67 -30Q453.08 -30 333.25 40.46Q213.42 110.92 146.71 237.46Q80 364 80 531.83Q80 708.83 145.62 838.58Q211.25 968.33 329.04 1039.17Q446.83 1110 604.33 1110Q768.08 1110 883.33 1034.17Q998.58 958.33 1056.21 818.33Q1113.83 678.33 1103.92 485.67H909.5V555.67Q907 749 833.25 843.17Q759.5 937.34 611.33 937.34Q450.25 937.34 367.87 834.92Q285.5 732.5 285.5 540Q285.5 355.67 367.87 254.41Q450.25 153.16 604.33 153.16Q706.83 153.16 782.17 199.83Q857.5 246.5 900 334.17L1087.83 272Q1024.75 128.17 897.62 49.08Q770.5 -30 613.67 -30ZM221.5 485.67V638.5H1005.83V485.67Z"/><path transform="translate(17683.000,0)" d="M550.33 -29.17Q355.08 -29.17 231.46 56.67Q107.83 142.5 80 297.33L278 328.5Q299.16 242.5 374.75 192.41Q450.33 142.33 562.83 142.33Q667.25 142.33 726.63 185.21Q786 228.08 786 302.83Q786 346.08 765.84 373.08Q745.67 400.08 681.83 424.08Q618 448.08 488.5 482.83Q347.33 520.17 265.63 561.13Q183.92 602.08 149.12 656.83Q114.33 711.58 114.33 790Q114.33 886.5 166.5 958.63Q218.67 1030.75 312.46 1070.38Q406.25 1110 531.83 1110Q655.5 1110 752.46 1070.79Q849.42 1031.58 909.08 960.21Q968.75 888.83 980.67 793.33L782.67 757.5Q770.67 839.59 704.21 887.29Q637.75 935 532.83 938.5Q432.83 942.25 370.66 903.92Q308.5 865.59 308.5 799.83Q308.5 762.25 331.95 735.96Q355.41 709.67 421.29 685.5Q487.16 661.33 614 629.33Q753.25 593.58 834.41 551.29Q915.58 509 950.62 450.96Q985.67 392.92 985.67 309.33Q985.67 151.25 869.83 61.04Q754 -29.17 550.33 -29.17Z"/><path transform="translate(18749.000,0)" d="M160 1264.17V1457.5H353.66V1264.17ZM160 0V1080H353.66V0Z"/><path transform="translate(19263.000,0)" d="M581.17 -510Q495 -510 413.67 -483.63Q332.33 -457.25 265.17 -404.75Q198 -352.25 153.67 -273.5L331.5 -181.5Q369.16 -255.75 438.29 -289.71Q507.41 -323.67 582.33 -323.67Q678.33 -323.67 743.79 -289Q809.25 -254.34 841.96 -185.92Q874.67 -117.5 873.5 -15.83V282.34H896.67V1080H1068V-18.16Q1068 -61.91 1065.12 -101.79Q1062.25 -141.66 1054.5 -180.83Q1032.67 -293.17 969.25 -365.92Q905.83 -438.67 807.17 -474.33Q708.5 -510 581.17 -510ZM566.33 -30Q415.67 -30 306.79 45.21Q197.92 120.42 138.96 249.63Q80 378.83 80 540.83Q80 703.33 139.12 832.04Q198.25 960.75 307.62 1035.37Q417 1110 567.83 1110Q720.58 1110 824.96 1035.63Q929.33 961.25 982.92 832.46Q1036.5 703.67 1036.5 540.83Q1036.5 379.25 982.83 250.04Q929.17 120.83 824.5 45.42Q719.83 -30 566.33 -30ZM592 146.16Q698 146.16 765.42 196.75Q832.83 247.33 864.75 336.54Q896.67 425.75 896.67 540.83Q896.67 656.75 864.54 745.54Q832.42 834.34 766.17 884.09Q699.92 933.84 597.83 933.84Q491 933.84 421.66 881.42Q352.33 829 318.91 739.92Q285.5 650.83 285.5 540.83Q285.5 429.83 319.16 340.33Q352.83 250.83 420.71 198.5Q488.58 146.16 592 146.16Z"/><path transform="translate(20471.000,0)" d="M903.5 0V535.83Q903.5 605.75 891.38 674.5Q879.25 743.25 847.83 800.21Q816.42 857.17 761.42 891.17Q706.42 925.17 620.67 925.17Q559 925.17 506.71 904.38Q454.41 883.59 416.08 840.21Q377.75 796.83 356.29 728.75Q334.83 660.67 334.83 565.5L211.33 607.83Q211.33 759.58 267.08 872.21Q322.83 984.83 425.66 1046.75Q528.5 1108.67 670.83 1108.67Q779.08 1108.67 854.29 1074Q929.5 1039.33 977.75 982.71Q1026 926.08 1052.5 858.13Q1079 790.17 1089.25 722.21Q1099.5 654.25 1099.5 598.5V0ZM138.83 0V1080H312.5V779.5H334.83V0Z"/><path transform="translate(21690.000,0)" d="M174 0V208.66H382.66V0Z"/></g><g aria-label="Part of the vibe scientific toolset" fill="#9DB1AB" transform="translate(64,582) scale(0.0085,-0.0085)"><path transform="translate(0.000,0)" d="M140 0V1440H702.5Q723.5 1440 751.13 1438.5Q778.75 1437 806.17 1432Q920.59 1414.33 999.59 1352.54Q1078.59 1290.75 1119.04 1196.92Q1159.5 1103.08 1159.5 989.67Q1159.5 876.25 1118.84 782.42Q1078.17 688.58 999.17 626.79Q920.17 565 806.17 547.33Q778.75 543.33 750.92 541.33Q723.08 539.33 702.5 539.33H302.34V0ZM302.34 694.17H697.5Q716.17 694.17 740.29 696.17Q764.42 698.17 787.17 703Q858.5 718.59 903.96 762.54Q949.42 806.5 971.12 866.33Q992.83 926.17 992.83 989.67Q992.83 1053.16 971.12 1113Q949.42 1172.83 903.96 1216.79Q858.5 1260.75 787.17 1276.33Q764.42 1281.75 740.29 1283.45Q716.17 1285.16 697.5 1285.16H302.34Z"/><path transform="translate(1220.000,0)" d="M448.17 -30Q326.33 -30 244.37 14.21Q162.42 58.42 121.21 131.46Q80 204.5 80 291Q80 377.67 113.79 439.96Q147.58 502.25 208.12 543.04Q268.67 583.83 349.83 606.5Q429.66 626.75 526.96 642.29Q624.25 657.83 721.08 670.13Q817.91 682.42 896.67 693.83L838.33 659.67Q841.25 811.08 778.62 884.37Q716 957.66 561.33 957.66Q457 957.66 381.79 910.29Q306.59 862.91 276.5 759.17L120.33 805.67Q158.42 949 270.54 1029.5Q382.67 1110 563.67 1110Q710.75 1110 815.33 1056.08Q919.92 1002.17 964.67 896.5Q986.17 848.17 992.17 789.92Q998.17 731.67 998.17 669.33V0H853.5V265.17L891 244.83Q833 109.58 720.21 39.79Q607.42 -30 448.17 -30ZM470 108.17Q569.5 108.17 643.17 143.71Q716.83 179.25 761.91 239.79Q807 300.33 820.33 374.67Q833.75 425.66 835.21 487.37Q836.66 549.08 836.66 581.66L895.67 553.5Q814.33 542.25 728.54 531.66Q642.75 521.08 562.92 508.62Q483.08 496.16 419.5 478.5Q374.25 464.83 333.71 441.96Q293.17 419.08 267.67 382.5Q242.17 345.92 242.17 291.5Q242.17 245.75 265.05 203.79Q287.92 161.84 337.96 135Q388 108.17 470 108.17Z"/><path transform="translate(2338.000,0)" d="M140 0V1080H285.5V819.5L259.5 853.5Q278.17 902.5 307.92 943.83Q337.67 985.17 373.5 1011.67Q415.42 1046.75 469.88 1065.5Q524.34 1084.25 580.34 1087.75Q636.34 1091.25 684.17 1080V927.5Q626.34 942.08 557.8 934.66Q489.25 927.25 431.34 882.66Q378.09 842.58 350.63 787.12Q323.17 731.67 313.17 668.17Q303.17 604.67 303.17 540.33V0Z"/><path transform="translate(3072.000,0)" d="M735.5 0Q641.58 -19.25 550.71 -15.58Q459.83 -11.92 388.46 22.42Q317.08 56.75 280.67 129.33Q250 191.08 247.42 254.75Q244.83 318.42 244.83 399.67V1380H407.17V406.34Q407.17 339.25 408.67 293.13Q410.17 247 429.17 212.34Q465.17 146.59 543.59 134.88Q622 123.17 735.5 140.84ZM20 943.5V1080H735.5V943.5Z"/><path transform="translate(4284.000,0)" d="M595.67 -30Q434.42 -30 319 43Q203.58 116 141.79 244.79Q80 373.58 80 541.17Q80 710.75 143 838.96Q206 967.17 321.71 1038.58Q437.42 1110 595.67 1110Q757.5 1110 873.13 1037.29Q988.75 964.58 1050.46 836.37Q1112.17 708.17 1112.17 541.17Q1112.17 371.42 1049.96 242.92Q987.75 114.42 871.83 42.21Q755.92 -30 595.67 -30ZM595.67 124.84Q769.25 124.84 854.46 240.75Q939.66 356.67 939.66 541.17Q939.66 730.08 853.75 842.62Q767.83 955.16 595.67 955.16Q478.67 955.16 402.71 902.33Q326.75 849.5 289.63 756.33Q252.5 663.17 252.5 541.17Q252.5 352.42 339.59 238.63Q426.67 124.84 595.67 124.84Z"/><path transform="translate(5476.000,0)" d="M245.17 0V1149.5Q245.17 1191.08 249.21 1233.46Q253.25 1275.83 267.46 1315.42Q281.67 1355 312.5 1388.67Q347.33 1426.58 388.92 1443.88Q430.5 1461.17 474.42 1465.58Q518.34 1470 559.67 1470H697.17V1334H569.67Q488.17 1334 447.84 1294.21Q407.5 1254.41 407.5 1171.5V0ZM60 943.5V1080H697.17V943.5Z"/><path transform="translate(6593.000,0)" d="M735.5 0Q641.58 -19.25 550.71 -15.58Q459.83 -11.92 388.46 22.42Q317.08 56.75 280.67 129.33Q250 191.08 247.42 254.75Q244.83 318.42 244.83 399.67V1380H407.17V406.34Q407.17 339.25 408.67 293.13Q410.17 247 429.17 212.34Q465.17 146.59 543.59 134.88Q622 123.17 735.5 140.84ZM20 943.5V1080H735.5V943.5Z"/><path transform="translate(7405.000,0)" d="M914.5 0V546.17Q914.5 629.25 899.12 702.5Q883.75 775.75 848.17 832.29Q812.58 888.83 754.58 920.83Q696.58 952.83 611.33 952.83Q539 952.83 481.79 928.12Q424.59 903.41 384.92 855.29Q345.25 807.17 324.21 736.25Q303.17 665.33 303.17 572.5L192.67 602.17Q192.67 763.42 249.92 876.29Q307.17 989.17 409.34 1048.25Q511.5 1107.33 647.17 1107.33Q747.92 1107.33 821.21 1076Q894.5 1044.67 944.25 991.79Q994 938.92 1023.5 872.37Q1053 805.83 1065.75 734.29Q1078.5 662.75 1078.5 595.5V0ZM139.17 0V1440H285.5V635.84H303.17V0Z"/><path transform="translate(8604.000,0)" d="M602.33 -30Q443.92 -30 326.75 40.04Q209.58 110.08 144.79 237.04Q80 364 80 534.17Q80 711.17 143.88 840.42Q207.75 969.67 323.46 1039.83Q439.17 1110 595.67 1110Q756.92 1110 870.67 1035.83Q984.42 961.67 1042.29 823.67Q1100.17 685.67 1093.08 494.33H928.5V552.33Q925 757 842.75 859.83Q760.5 962.66 600.67 962.66Q430.75 962.66 341.63 853.08Q252.5 743.5 252.5 540Q252.5 342.33 341.63 233.59Q430.75 124.84 595.67 124.84Q707.17 124.84 789.83 176.17Q872.5 227.5 920 323.83L1074.17 268Q1010.25 125.83 884.88 47.92Q759.5 -30 602.33 -30ZM196.5 494.33V627.5H1008.17V494.33Z"/><path transform="translate(10179.000,0)" d="M432 0 40 1080H204.67L515.5 209.5L825.17 1080H991L599 0Z"/><path transform="translate(11210.000,0)" d="M160 1277.83V1452.5H322.34V1277.83ZM160 0V1080H322.34V0Z"/><path transform="translate(11692.000,0)" d="M630.33 -30Q479.83 -30 376.5 45.58Q273.17 121.17 219.83 250.46Q166.5 379.75 166.5 541.17Q166.5 704.33 219.92 833.04Q273.33 961.75 377.46 1035.87Q481.58 1110 633.83 1110Q783 1110 890.13 1035.13Q997.25 960.25 1054.63 831.46Q1112 702.67 1112 541.17Q1112 379.17 1054.46 249.87Q996.92 120.58 889.29 45.29Q781.67 -30 630.33 -30ZM139.17 0V1440H302.34V804.16H284.67V0ZM612 119.84Q721.58 119.84 794.21 175.5Q866.83 231.17 903.16 326.67Q939.5 422.17 939.5 541.17Q939.5 659.17 903.62 754.08Q867.75 849 794.37 904.58Q721 960.16 607.83 960.16Q498.92 960.16 427.17 906.91Q355.42 853.66 320.04 758.96Q284.67 664.25 284.67 541.17Q284.67 419.25 319.75 323.96Q354.84 228.67 427.42 174.25Q500 119.84 612 119.84Z"/><path transform="translate(12884.000,0)" d="M602.33 -30Q443.92 -30 326.75 40.04Q209.58 110.08 144.79 237.04Q80 364 80 534.17Q80 711.17 143.88 840.42Q207.75 969.67 323.46 1039.83Q439.17 1110 595.67 1110Q756.92 1110 870.67 1035.83Q984.42 961.67 1042.29 823.67Q1100.17 685.67 1093.08 494.33H928.5V552.33Q925 757 842.75 859.83Q760.5 962.66 600.67 962.66Q430.75 962.66 341.63 853.08Q252.5 743.5 252.5 540Q252.5 342.33 341.63 233.59Q430.75 124.84 595.67 124.84Q707.17 124.84 789.83 176.17Q872.5 227.5 920 323.83L1074.17 268Q1010.25 125.83 884.88 47.92Q759.5 -30 602.33 -30ZM196.5 494.33V627.5H1008.17V494.33Z"/><path transform="translate(14459.000,0)" d="M545.67 -28.83Q353.92 -28.83 231.04 54.33Q108.17 137.5 80 286.67L246 313.5Q268.84 223.5 351.25 170.59Q433.67 117.67 555.17 117.67Q671.75 117.67 738.87 166.29Q806 214.92 806 299.17Q806 346.92 784.16 376.92Q762.33 406.92 695.17 432.92Q628 458.92 493.5 495.17Q348.67 533.83 265.87 574.37Q183.08 614.92 148.38 668.17Q113.67 721.42 113.67 798Q113.67 891.5 165.5 961.87Q217.33 1032.25 310.04 1071.12Q402.75 1110 526.17 1110Q648.5 1110 745.04 1070.71Q841.58 1031.42 900.92 960.29Q960.25 889.17 971.33 794.67L805.33 764.5Q791.33 855.41 716.29 908.21Q641.25 961 525.17 963.5Q415.17 966.75 346.34 923.08Q277.5 879.41 277.5 806.17Q277.5 764.75 302.55 735.54Q327.59 706.33 395.21 680.5Q462.84 654.67 590 622.67Q735.75 585.42 819.59 543.21Q903.42 501 938.88 443.54Q974.33 386.08 974.33 302.67Q974.33 147.75 860.17 59.46Q746 -28.83 545.67 -28.83Z"/><path transform="translate(15515.000,0)" d="M591.5 -30Q427.58 -30 314 43.25Q200.42 116.5 141.08 245.21Q81.75 373.92 80 540Q81.75 709.25 142.42 837.67Q203.08 966.08 317.08 1038.04Q431.08 1110 593.17 1110Q760.25 1110 882.75 1028.08Q1005.25 946.17 1048.84 803.66L888.83 753.83Q852.58 849.5 773.25 902.33Q693.92 955.16 591.5 955.16Q476.34 955.16 401.5 902Q326.67 848.83 290.17 755.16Q253.67 661.5 252.5 540Q254.25 352.92 339.21 238.88Q424.17 124.84 591.5 124.84Q699.25 124.84 772.92 174.42Q846.58 224 885.16 318.34L1048.84 273.17Q990.59 125.67 873.09 47.83Q755.59 -30 591.5 -30Z"/><path transform="translate(16630.000,0)" d="M160 1277.83V1452.5H322.34V1277.83ZM160 0V1080H322.34V0Z"/><path transform="translate(17112.000,0)" d="M602.33 -30Q443.92 -30 326.75 40.04Q209.58 110.08 144.79 237.04Q80 364 80 534.17Q80 711.17 143.88 840.42Q207.75 969.67 323.46 1039.83Q439.17 1110 595.67 1110Q756.92 1110 870.67 1035.83Q984.42 961.67 1042.29 823.67Q1100.17 685.67 1093.08 494.33H928.5V552.33Q925 757 842.75 859.83Q760.5 962.66 600.67 962.66Q430.75 962.66 341.63 853.08Q252.5 743.5 252.5 540Q252.5 342.33 341.63 233.59Q430.75 124.84 595.67 124.84Q707.17 124.84 789.83 176.17Q872.5 227.5 920 323.83L1074.17 268Q1010.25 125.83 884.88 47.92Q759.5 -30 602.33 -30ZM196.5 494.33V627.5H1008.17V494.33Z"/><path transform="translate(18287.000,0)" d="M914.5 0V546.17Q914.5 629.25 899.12 702.5Q883.75 775.75 848.17 832.29Q812.58 888.83 754.58 920.83Q696.58 952.83 611.33 952.83Q539 952.83 481.79 928.12Q424.59 903.41 384.92 855.29Q345.25 807.17 324.21 736.25Q303.17 665.33 303.17 572.5L192.67 602.17Q192.67 763.42 249.92 876.29Q307.17 989.17 409.34 1048.25Q511.5 1107.33 647.17 1107.33Q747.92 1107.33 821.21 1076Q894.5 1044.67 944.25 991.79Q994 938.92 1023.5 872.37Q1053 805.83 1065.75 734.29Q1078.5 662.75 1078.5 595.5V0ZM139.17 0V1080H285.5V802.5H303.17V0Z"/><path transform="translate(19486.000,0)" d="M735.5 0Q641.58 -19.25 550.71 -15.58Q459.83 -11.92 388.46 22.42Q317.08 56.75 280.67 129.33Q250 191.08 247.42 254.75Q244.83 318.42 244.83 399.67V1380H407.17V406.34Q407.17 339.25 408.67 293.13Q410.17 247 429.17 212.34Q465.17 146.59 543.59 134.88Q622 123.17 735.5 140.84ZM20 943.5V1080H735.5V943.5Z"/><path transform="translate(20298.000,0)" d="M160 1277.83V1452.5H322.34V1277.83ZM160 0V1080H322.34V0Z"/><path transform="translate(20780.000,0)" d="M245.17 0V1149.5Q245.17 1191.08 249.21 1233.46Q253.25 1275.83 267.46 1315.42Q281.67 1355 312.5 1388.67Q347.33 1426.58 388.92 1443.88Q430.5 1461.17 474.42 1465.58Q518.34 1470 559.67 1470H697.17V1334H569.67Q488.17 1334 447.84 1294.21Q407.5 1254.41 407.5 1171.5V0ZM60 943.5V1080H697.17V943.5Z"/><path transform="translate(21497.000,0)" d="M160 1277.83V1452.5H322.34V1277.83ZM160 0V1080H322.34V0Z"/><path transform="translate(21979.000,0)" d="M591.5 -30Q427.58 -30 314 43.25Q200.42 116.5 141.08 245.21Q81.75 373.92 80 540Q81.75 709.25 142.42 837.67Q203.08 966.08 317.08 1038.04Q431.08 1110 593.17 1110Q760.25 1110 882.75 1028.08Q1005.25 946.17 1048.84 803.66L888.83 753.83Q852.58 849.5 773.25 902.33Q693.92 955.16 591.5 955.16Q476.34 955.16 401.5 902Q326.67 848.83 290.17 755.16Q253.67 661.5 252.5 540Q254.25 352.92 339.21 238.88Q424.17 124.84 591.5 124.84Q699.25 124.84 772.92 174.42Q846.58 224 885.16 318.34L1048.84 273.17Q990.59 125.67 873.09 47.83Q755.59 -30 591.5 -30Z"/><path transform="translate(23494.000,0)" d="M735.5 0Q641.58 -19.25 550.71 -15.58Q459.83 -11.92 388.46 22.42Q317.08 56.75 280.67 129.33Q250 191.08 247.42 254.75Q244.83 318.42 244.83 399.67V1380H407.17V406.34Q407.17 339.25 408.67 293.13Q410.17 247 429.17 212.34Q465.17 146.59 543.59 134.88Q622 123.17 735.5 140.84ZM20 943.5V1080H735.5V943.5Z"/><path transform="translate(24306.000,0)" d="M595.67 -30Q434.42 -30 319 43Q203.58 116 141.79 244.79Q80 373.58 80 541.17Q80 710.75 143 838.96Q206 967.17 321.71 1038.58Q437.42 1110 595.67 1110Q757.5 1110 873.13 1037.29Q988.75 964.58 1050.46 836.37Q1112.17 708.17 1112.17 541.17Q1112.17 371.42 1049.96 242.92Q987.75 114.42 871.83 42.21Q755.92 -30 595.67 -30ZM595.67 124.84Q769.25 124.84 854.46 240.75Q939.66 356.67 939.66 541.17Q939.66 730.08 853.75 842.62Q767.83 955.16 595.67 955.16Q478.67 955.16 402.71 902.33Q326.75 849.5 289.63 756.33Q252.5 663.17 252.5 541.17Q252.5 352.42 339.59 238.63Q426.67 124.84 595.67 124.84Z"/><path transform="translate(25498.000,0)" d="M595.67 -30Q434.42 -30 319 43Q203.58 116 141.79 244.79Q80 373.58 80 541.17Q80 710.75 143 838.96Q206 967.17 321.71 1038.58Q437.42 1110 595.67 1110Q757.5 1110 873.13 1037.29Q988.75 964.58 1050.46 836.37Q1112.17 708.17 1112.17 541.17Q1112.17 371.42 1049.96 242.92Q987.75 114.42 871.83 42.21Q755.92 -30 595.67 -30ZM595.67 124.84Q769.25 124.84 854.46 240.75Q939.66 356.67 939.66 541.17Q939.66 730.08 853.75 842.62Q767.83 955.16 595.67 955.16Q478.67 955.16 402.71 902.33Q326.75 849.5 289.63 756.33Q252.5 663.17 252.5 541.17Q252.5 352.42 339.59 238.63Q426.67 124.84 595.67 124.84Z"/><path transform="translate(26690.000,0)" d="M160 0V1470H322.34V0Z"/><path transform="translate(27172.000,0)" d="M545.67 -28.83Q353.92 -28.83 231.04 54.33Q108.17 137.5 80 286.67L246 313.5Q268.84 223.5 351.25 170.59Q433.67 117.67 555.17 117.67Q671.75 117.67 738.87 166.29Q806 214.92 806 299.17Q806 346.92 784.16 376.92Q762.33 406.92 695.17 432.92Q628 458.92 493.5 495.17Q348.67 533.83 265.87 574.37Q183.08 614.92 148.38 668.17Q113.67 721.42 113.67 798Q113.67 891.5 165.5 961.87Q217.33 1032.25 310.04 1071.12Q402.75 1110 526.17 1110Q648.5 1110 745.04 1070.71Q841.58 1031.42 900.92 960.29Q960.25 889.17 971.33 794.67L805.33 764.5Q791.33 855.41 716.29 908.21Q641.25 961 525.17 963.5Q415.17 966.75 346.34 923.08Q277.5 879.41 277.5 806.17Q277.5 764.75 302.55 735.54Q327.59 706.33 395.21 680.5Q462.84 654.67 590 622.67Q735.75 585.42 819.59 543.21Q903.42 501 938.88 443.54Q974.33 386.08 974.33 302.67Q974.33 147.75 860.17 59.46Q746 -28.83 545.67 -28.83Z"/><path transform="translate(28228.000,0)" d="M602.33 -30Q443.92 -30 326.75 40.04Q209.58 110.08 144.79 237.04Q80 364 80 534.17Q80 711.17 143.88 840.42Q207.75 969.67 323.46 1039.83Q439.17 1110 595.67 1110Q756.92 1110 870.67 1035.83Q984.42 961.67 1042.29 823.67Q1100.17 685.67 1093.08 494.33H928.5V552.33Q925 757 842.75 859.83Q760.5 962.66 600.67 962.66Q430.75 962.66 341.63 853.08Q252.5 743.5 252.5 540Q252.5 342.33 341.63 233.59Q430.75 124.84 595.67 124.84Q707.17 124.84 789.83 176.17Q872.5 227.5 920 323.83L1074.17 268Q1010.25 125.83 884.88 47.92Q759.5 -30 602.33 -30ZM196.5 494.33V627.5H1008.17V494.33Z"/><path transform="translate(29403.000,0)" d="M735.5 0Q641.58 -19.25 550.71 -15.58Q459.83 -11.92 388.46 22.42Q317.08 56.75 280.67 129.33Q250 191.08 247.42 254.75Q244.83 318.42 244.83 399.67V1380H407.17V406.34Q407.17 339.25 408.67 293.13Q410.17 247 429.17 212.34Q465.17 146.59 543.59 134.88Q622 123.17 735.5 140.84ZM20 943.5V1080H735.5V943.5Z"/></g><g aria-label="/products/vibe-qc/" fill="#2DB9A8" transform="translate(845,562) scale(0.0085,-0.0085)"><path transform="translate(0.000,0)" d="M504 1440H685L301 0H120Z"/><path transform="translate(805.000,0)" d="M636 -30Q484 -30 380 45.5Q276 121 222.5 250.25Q169 379.5 169 541Q169 704 222.5 832.75Q276 961.5 380.25 1035.75Q484.5 1110 637 1110Q787 1110 895.25 1035.25Q1003.5 960.5 1061.75 831.75Q1120 703 1120 541Q1120 379 1061.75 249.75Q1003.5 120.5 895.25 45.25Q787 -30 636 -30ZM139 -480V1080H298V285H318V-480ZM614 133Q720.5 133 790.75 187Q861 241 896 333.5Q931 426 931 541Q931 655 896.25 747Q861.5 839 790.25 893Q719 947 609 947Q503.5 947 434.5 895.5Q365.5 844 331.75 752.25Q298 660.5 298 541Q298 422.5 331.5 330.25Q365 238 435 185.5Q505 133 614 133Z"/><path transform="translate(2005.000,0)" d="M140 0V1080H299V819L273 853Q292 903 322.5 945Q353 987 391 1014Q432.5 1047.5 485.75 1065.5Q539 1083.5 594 1087Q649 1090.5 697 1080V913Q641 927.5 573.75 920.5Q506.5 913.5 450 872Q397.5 834.5 369.25 781.75Q341 729 330 667.5Q319 606 319 542V0Z"/><path transform="translate(2752.000,0)" d="M600 -30Q438.5 -30 322 43Q205.5 116 142.75 244.75Q80 373.5 80 541Q80 710.5 144 838.75Q208 967 324.75 1038.5Q441.5 1110 600 1110Q762 1110 878.75 1037.25Q995.5 964.5 1058.25 836.25Q1121 708 1121 541Q1121 371.5 1057.75 243Q994.5 114.5 877.5 42.25Q760.5 -30 600 -30ZM600 139Q767.5 139 849.75 251Q932 363 932 541Q932 723.5 849 832.25Q766 941 600 941Q487 941 413.75 890Q340.5 839 304.75 749Q269 659 269 541Q269 358.5 353 248.75Q437 139 600 139Z"/><path transform="translate(3953.000,0)" d="M564 -30Q413 -30 304.75 45.25Q196.5 120.5 138.25 249.75Q80 379 80 541Q80 703 138.25 831.75Q196.5 960.5 304.75 1035.25Q413 1110 563 1110Q715.5 1110 819.75 1035.75Q924 961.5 977.5 832.75Q1031 704 1031 541Q1031 379.5 977.5 250.25Q924 121 820 45.5Q716 -30 564 -30ZM586 133Q695 133 765 185.5Q835 238 868.5 330.25Q902 422.5 902 541Q902 660.5 868.25 752.25Q834.5 844 765.5 895.5Q696.5 947 591 947Q481 947 409.5 893Q338 839 303.5 747Q269 655 269 541Q269 426 304 333.5Q339 241 409.25 187Q479.5 133 586 133ZM902 0V795H882V1440H1061V0Z"/><path transform="translate(5154.000,0)" d="M550 -28Q445.5 -28 371.25 5Q297 38 248 92.75Q199 147.5 171 214.75Q143 282 131.5 351.75Q120 421.5 120 483V1080H300V539Q300 463 313.75 391.75Q327.5 320.5 361 263.75Q394.5 207 451 174Q507.5 141 593 141Q660 141 714.75 163.75Q769.5 186.5 808.5 232.25Q847.5 278 868.75 347.75Q890 417.5 890 511L1007 475Q1007 318.5 950.5 205.75Q894 93 791.5 32.5Q689 -28 550 -28ZM910 0V289H890V1080H1069V0Z"/><path transform="translate(6363.000,0)" d="M595 -30Q430.5 -30 316 43.5Q201.5 117 141.5 245.75Q81.5 374.5 80 540Q81.5 708.5 143 837Q204.5 965.5 319.5 1037.75Q434.5 1110 597 1110Q767.5 1110 891 1026Q1014.5 942 1057 796L881 743Q846.5 837 770 889Q693.5 941 595 941Q484 941 412 889.5Q340 838 305 747.5Q270 657 269 540Q270.5 359.5 352.25 249.25Q434 139 595 139Q700.5 139 770.5 187.5Q840.5 236 877 328L1057 281Q1000.5 130 881.5 50Q762.5 -30 595 -30Z"/><path transform="translate(7485.000,0)" d="M743 0Q646.5 -19.5 553.25 -16Q460 -12.5 386.75 22Q313.5 56.5 276 130Q244 193.5 241.5 259Q239 324.5 239 408V1380H417V416Q417 349.5 418.5 302.75Q420 256 439 222Q475 157.5 553.5 146.75Q632 136 743 153ZM20 933V1080H743V933Z"/><path transform="translate(8308.000,0)" d="M548 -29Q354.5 -29 231.25 55.5Q108 140 80 292L262 321Q284 233 363 181.5Q442 130 559 130Q669.5 130 732.75 175.75Q796 221.5 796 301Q796 346.5 775 375Q754 403.5 688.5 428.5Q623 453.5 491 489Q348 527 265.75 567.75Q183.5 608.5 148.75 662.5Q114 716.5 114 794Q114 889 166 960.25Q218 1031.5 311.25 1070.75Q404.5 1110 529 1110Q652 1110 748.75 1070.75Q845.5 1031.5 905 960.25Q964.5 889 976 794L794 761Q781 847.5 710.25 897.75Q639.5 948 529 951Q424 954.5 358.5 913.5Q293 872.5 293 803Q293 763.5 317.25 735.75Q341.5 708 408.25 683Q475 658 602 626Q744.5 589.5 827 547.25Q909.5 505 944.75 447.25Q980 389.5 980 306Q980 149.5 865 60.25Q750 -29 548 -29Z"/><path transform="translate(9369.000,0)" d="M504 1440H685L301 0H120Z"/><path transform="translate(10174.000,0)" d="M432 0 40 1080H220L523 227L825 1080H1006L614 0Z"/><path transform="translate(11220.000,0)" d="M160 1271V1455H338V1271ZM160 0V1080H338V0Z"/><path transform="translate(11718.000,0)" d="M636 -30Q484 -30 380 45.5Q276 121 222.5 250.25Q169 379.5 169 541Q169 704 222.5 832.75Q276 961.5 380.25 1035.75Q484.5 1110 637 1110Q787 1110 895.25 1035.25Q1003.5 960.5 1061.75 831.75Q1120 703 1120 541Q1120 379 1061.75 249.75Q1003.5 120.5 895.25 45.25Q787 -30 636 -30ZM139 0V1440H318V795H298V0ZM614 133Q720.5 133 790.75 187Q861 241 896 333.5Q931 426 931 541Q931 655 896.25 747Q861.5 839 790.25 893Q719 947 609 947Q503.5 947 434.5 895.5Q365.5 844 331.75 752.25Q298 660.5 298 541Q298 422.5 331.5 330.25Q365 238 435 185.5Q505 133 614 133Z"/><path transform="translate(12918.000,0)" d="M608 -30Q448.5 -30 330 40.25Q211.5 110.5 145.75 237.25Q80 364 80 533Q80 710 144.75 839.5Q209.5 969 326.25 1039.5Q443 1110 600 1110Q762.5 1110 877 1035Q991.5 960 1049.25 821Q1107 682 1098.5 490H919V554Q916 753 838 851.5Q760 950 606 950Q440.5 950 354.75 844Q269 738 269 540Q269 349 354.75 244Q440.5 139 600 139Q707 139 786 188Q865 237 910 329L1081 270Q1017.5 127 891.25 48.5Q765 -30 608 -30ZM209 490V633H1007V490Z"/><path transform="translate(14099.000,0)" d="M120 557V704H720V557Z"/><path transform="translate(14939.000,0)" d="M564 -30Q413 -30 304.75 45.25Q196.5 120.5 138.25 249.75Q80 379 80 541Q80 703 138.25 831.75Q196.5 960.5 304.75 1035.25Q413 1110 563 1110Q715.5 1110 819.75 1035.75Q924 961.5 977.5 832.75Q1031 704 1031 541Q1031 379.5 977.5 250.25Q924 121 820 45.5Q716 -30 564 -30ZM586 133Q695 133 765 185.5Q835 238 868.5 330.25Q902 422.5 902 541Q902 660.5 868.25 752.25Q834.5 844 765.5 895.5Q696.5 947 591 947Q481 947 409.5 893Q338 839 303.5 747Q269 655 269 541Q269 426 304 333.5Q339 241 409.25 187Q479.5 133 586 133ZM882 -480V285H902V1080H1061V-480Z"/><path transform="translate(16140.000,0)" d="M595 -30Q430.5 -30 316 43.5Q201.5 117 141.5 245.75Q81.5 374.5 80 540Q81.5 708.5 143 837Q204.5 965.5 319.5 1037.75Q434.5 1110 597 1110Q767.5 1110 891 1026Q1014.5 942 1057 796L881 743Q846.5 837 770 889Q693.5 941 595 941Q484 941 412 889.5Q340 838 305 747.5Q270 657 269 540Q270.5 359.5 352.25 249.25Q434 139 595 139Q700.5 139 770.5 187.5Q840.5 236 877 328L1057 281Q1000.5 130 881.5 50Q762.5 -30 595 -30Z"/><path transform="translate(17262.000,0)" d="M504 1440H685L301 0H120Z"/></g></svg>
